<svg id="Capa_1" data-name="Capa 1" xmlns="http://www.w3.org/2000/svg" viewBox="0 0 189.73 363.11"><defs><style>.cls-1{fill:#4c68d7;}.cls-2{fill:#1d1d1b;}.cls-3{fill:#e95950;}.cls-4{fill:#ef443b;}.cls-5{fill:#c8cdd1;}.cls-6{fill:#fccc63;}.cls-7{fill:#f9f9f9;}</style></defs><title>rocket</title><path class="cls-1" d="M113.42,120.48a36.46,36.46,0,0,1-7.91,27.71.71.71,0,0,0-.45-.17c-.62,0-1.16.91-.61,1.41a39.32,39.32,0,0,1-11.8,9,.61.61,0,0,0-.7.35,44.28,44.28,0,0,1-7.31,2.72.89.89,0,0,0-.77-.53,53.45,53.45,0,0,1-19.24-4.4l-13-10a32.68,32.68,0,0,1-6-13.18A34.82,34.82,0,0,1,70.1,92.62C90.8,86.79,110.94,99,113.42,120.48Z" transform="translate(0.04 0)"/><path class="cls-2" d="M132.74,157.94c-.14-1.56-.3-3.11-.49-4.67-3.21-1.34-5.87-4.11-8.51-6.34-3.17-2.65-6.17-5.41-9.17-8.22a42.16,42.16,0,0,1-1.74,4.17c4,3.43,8,6.74,12.28,9.86C127.57,154.55,130.2,156.19,132.74,157.94Zm-.19,54.51c.27-2.55.48-5.12.67-7.68l-1.53-1.23,1.78-2.22v0q.18-3,.31-6.12c-13.32-11-26.18-22.66-39.41-33.82A36.24,36.24,0,0,1,86.66,164l-1.11,1.3-1-.85h-.13l-.21,0a1.5,1.5,0,0,1-1.52-1.48,30.23,30.23,0,0,1-9.68.15C93.37,179,113.55,195.26,132.55,212.45Zm-.44,4.21c0-.18,0-.36.06-.56C108,198.41,84.72,179,61.77,159.33a39.28,39.28,0,0,1-12.19-10.46q-10.87-9.39-21.74-18.65l1.05-1.35q8,6.27,16.16,12.53a37.16,37.16,0,0,1-2.62-7.83c-5.26-3.34-10-8.43-14-13.34l1.83-.32c1.73,1.81,3.46,3.59,5.28,5.28,2,1.89,4.26,3.58,6.37,5.38a36.9,36.9,0,0,1-.1-8A43.6,43.6,0,0,1,35.75,118c-2-1.57-3.91-3.14-5.83-4.74l1.41-1.71c2,1.43,4,2.93,6,4.43,1.58,1.17,3.35,2.32,4.88,3.66A37.73,37.73,0,0,1,43.62,114c-2-1.51-3.81-3.32-5.74-4.89-2.51-2-5.1-4-7.71-5.94h0l.19-1.56q4.1,2.76,8.09,5.76c2,1.44,4.13,2.83,6,4.44a38.56,38.56,0,0,1,4.16-7.65C42.86,102,37.47,97.61,32.7,93.32L34,91.6c2.37,1.78,4.78,3.51,7.24,5.14,2.86,1.89,6,3.5,8.6,5.72a38.48,38.48,0,0,1,5.9-6A189.75,189.75,0,0,1,33.85,81h0l.4-2A189.9,189.9,0,0,1,57.85,94.76a.1.1,0,0,1,.06.08,39.06,39.06,0,0,1,4.43-2.66c-9.21-6.28-17.69-13.91-26.3-21l1.11-1.53C46.47,76.5,56.34,83,64.87,90.78a.83.83,0,0,1,.08.12A36.49,36.49,0,0,1,70.43,89c1.22-.3,2.44-.54,3.65-.73C61.93,79.83,50.4,70.47,38.47,61.69l.87-1.24c12.68,9,25.84,17.28,38.22,26.66a1.51,1.51,0,0,1,.53.76,38.65,38.65,0,0,1,14.36,1.86c-13.68-11.1-27.54-22-42.22-31.4a36.21,36.21,0,0,1-9-6.16l.63-2c14.17,10.85,32.7,11.17,45.62.17-.26-.63.34-1.47,1.1-1h.07a37.46,37.46,0,0,0,5.07-5.82,1.66,1.66,0,0,1,1.1-.7c-3.85-6.39-8-12.62-12.4-18.62C76.56,16.4,69.61,10.05,62.91,3.07l1.77-1.72c15.29,9.17,26.19,28,34.91,42.82a278.55,278.55,0,0,1,36.62,116.42c.35.26.69.5,1,.77.84.75.13,1.76-.75,1.86q.33,4.31.53,8.61a1.78,1.78,0,0,1,.69,0c24,6.76,43.84,26,50,50.41,6.39,25.28-2.84,52.54-22.13,69.81a1.87,1.87,0,0,1-3.16-1.31c0-26.69-7-54-29.74-70.07a55.25,55.25,0,0,1-17.29,10.73l-2.27.81a78.09,78.09,0,0,1-20.51,4.13,140,140,0,0,1-18.09,0c-.3.49-.58,1-.85,1.5l-2.53-.52q.38-.57.78-1.11c-3.49-.24-7-.58-10.41-1a39.18,39.18,0,0,1-10.41-2.39s-.1.1-.1.15c-15.35,20-18,45.14-16.25,69.56A1.83,1.83,0,0,1,32,304.15,73.28,73.28,0,0,1,2.46,261.93l2.77-.72a69.35,69.35,0,0,0,25.63,37.65c-1.41-23.85,2-48.32,16.91-67.75v0c-.46-.32-1-.67-1.46-1.05a.7.7,0,0,1-.9-.3l-.3-.51,1.36-.79h0c1.37.48,2.76.88,4.13,1.29-1.61-1.44-3.16-3-4.7-4.49l1.1-1.11a83.63,83.63,0,0,1,7.18,6.45,18.87,18.87,0,0,0,2.42.51c-5.75-4.9-11-10.64-16.25-15.9l.68-.76c6.48,5.79,13.76,11.13,19.73,17.43l0,0q3.43.56,7,.87c-11-7.84-21.19-17.15-30.77-26.66l.76-.89c11,9.57,22.51,18.48,33.67,27.86v0c2.2.16,4.4.24,6.58.25C62.88,221.64,48.43,208.72,34,196l.74-.94c15.5,12.25,31.28,24.51,45.86,37.83a.85.85,0,0,1,.27.54c1.82,0,3.62-.09,5.43-.09h0L88,231.69l1.24,1.19a.89.89,0,0,1,.24.41q3.93-.16,7.78-.66l2.26-.32c2.42-.38,4.78-.9,7.12-1.51-13.56-9.13-25.9-20.62-38.35-31.13C54.89,188.38,41.5,177,28.64,165.16l1.15-1.39c13.1,10.83,26.16,22,39.13,32.8,13.3,11,27.89,21.27,40.3,33.27a1.43,1.43,0,0,1,.14.2c1.31-.41,2.6-.86,3.88-1.35l2.55-1.34a1.64,1.64,0,0,1,.14.22,55.65,55.65,0,0,0,6.22-3.13Q75.19,184,27.6,144.29l1.22-1.52Q77.56,181.7,124.41,223A51.58,51.58,0,0,0,132.11,216.66Zm-.23-66.6c-.3-2.5-.65-4.92-.91-7.41a58.8,58.8,0,0,1-7.27-6q-3.58-3.08-7-6.26a42,42,0,0,1-1.44,6.45q4.8,4,9.71,7.89C127.18,146.48,129.78,148.06,131.88,150.06ZM166,286.47c16.22-16.39,23.76-40.52,18-63.21-5.82-23-24.32-41.07-46.92-47.59a280.06,280.06,0,0,1-1.76,41.05,1.66,1.66,0,0,1-.48,1,1.47,1.47,0,0,1-.34,1.06C157.59,233.32,165.22,260.4,166,286.47Zm-32.12-94.76c.07-2.26.07-4.51.05-6.8-11.4-8.6-21.74-18.73-33.12-27.44a37.54,37.54,0,0,1-5,3.15c13.18,9.65,26.25,19.83,38.07,31.09v0ZM134,181.6c0-3.47-.15-7-.31-10.47a1.42,1.42,0,0,1-.08.18,1.08,1.08,0,0,1-1.48.39c-4.86-2.61-9-6.86-13.24-10.36l-11.78-9.71a38.71,38.71,0,0,1-4.84,4.74C113,164.09,124.65,172.12,134,181.6Zm-.5-11.65a1,1,0,0,1,.17.27c-.14-2.83-.34-5.65-.56-8.48-7.71-4.19-14.88-11-21.16-17.07a40.44,40.44,0,0,1-3.68,5.58l12.1,9.2C124.7,162.77,129.8,165.83,133.46,170Zm-3.19-31.32c-.52-3.12-1.08-6.23-1.71-9.34-.26-1.33-.53-2.67-.82-4a57.41,57.41,0,0,1-6.8-5.65l-5-4.36a38.63,38.63,0,0,1,.76,4c3.92,3,8.41,5.85,11.41,9.57a.89.89,0,0,1,.25.48.9.9,0,0,1-.11.66.93.93,0,0,1-1.27.32c-3.64-2-6.87-5.08-10-8.08a40.35,40.35,0,0,1-.08,5.92c2.53,1.91,5,3.91,7.53,5.91v0C126.23,135.51,128.36,137,130.27,138.63Zm-3.41-17.07h0q-.65-2.66-1.23-5.22c-4.5-3.44-9-7-13.41-10.55a36.37,36.37,0,0,1,3,7l6.9,5.23C123.67,119.19,125.32,120.33,126.86,121.56Zm-2.4-9.51q-.64-2.4-1.34-4.8h0v0l-.79-2.63c-.2-.63-.4-1.32-.61-2-.75-2.39-1.52-4.76-2.33-7.13v0a1.22,1.22,0,0,1-1.5,0C103.34,84.53,89.45,72.31,76,60.06a36.67,36.67,0,0,1-5.74,1.31l-1,1.12-1-.92a35.27,35.27,0,0,1-11.89-1C80.62,75.18,102.6,94.16,124.46,112.05Zm-6.4-20.34v0q-2.07-5.75-4.39-11.41c-6.15-3.06-11.69-8.35-17.15-12.56-4.47-3.49-9-7-13.47-10.55a38.32,38.32,0,0,1-5.4,2.41C91.44,69.76,105.23,80.31,118.06,91.71Zm-12.55,56.48a36.46,36.46,0,0,0,7.91-27.71C110.94,99,90.8,86.79,70.1,92.62a34.82,34.82,0,0,0-24.47,40.72,32.68,32.68,0,0,0,6,13.18l13,10A53.45,53.45,0,0,0,83.87,161a.89.89,0,0,1,.77.53A44.28,44.28,0,0,0,92,158.78a.61.61,0,0,1,.7-.35,39.32,39.32,0,0,0,11.8-9c-.55-.5,0-1.41.61-1.41A.71.71,0,0,1,105.51,148.19ZM111.43,75c-1.74-4-3.59-7.94-5.52-11.85v0a1,1,0,0,1-.87,0A148.57,148.57,0,0,1,89.94,52.42a40.11,40.11,0,0,1-5,3.7c5,3.5,10,7.1,15,10.71C103.66,69.52,107.8,72,111.43,75Zm-7.37-15.54c-1.89-3.68-3.84-7.32-5.89-10.91-.59-1.06-1.2-2.07-1.8-3a39.54,39.54,0,0,1-4.92,5.58C95.73,53.73,100.06,56.48,104.06,59.48Z" transform="translate(0.04 0)"/><path class="cls-3" d="M184,223.26c5.74,22.69-1.8,46.82-18,63.21-.79-26.07-8.42-53.15-31.48-67.69a1.47,1.47,0,0,0,.34-1.06,1.66,1.66,0,0,0,.48-1,280.06,280.06,0,0,0,1.76-41.05C159.71,182.19,178.21,200.25,184,223.26Z" transform="translate(0.04 0)"/><path class="cls-2" d="M133.37,329a60.89,60.89,0,0,0-16.82-50.29,1.51,1.51,0,0,1-.42-1,54.8,54.8,0,0,1-6,2,50.76,50.76,0,0,1,13.12,33.9,1.41,1.41,0,0,1-2.61.71,25.62,25.62,0,0,0-7.36-6.63,141,141,0,0,1,3.31,27,1.36,1.36,0,0,1-.37.94,1.37,1.37,0,0,1-1.94.06,63.07,63.07,0,0,1-22.55-37.55c0-.15-.21-1.4-.41-2.69a28.4,28.4,0,0,1-.38-3.1l-.18-2.75a7.47,7.47,0,0,0-6.22,2.4c-1,.64-1.91-.45-1.77-1.36a16,16,0,0,1,3.15-7.74,37.35,37.35,0,0,1-4.35-.49c-3.45,7-5,13.38-3.12,20.88a49,49,0,0,1,8.91-8.6,1.56,1.56,0,0,1,2.31,1,1.17,1.17,0,0,1,0,.32,71.08,71.08,0,0,0,36,62.82,44.81,44.81,0,0,0-3.45-34.68,1.73,1.73,0,0,1,2.35-2.35A40.78,40.78,0,0,1,133.37,329ZM119,276.57a62.24,62.24,0,0,1,17,56.67,1.69,1.69,0,0,1-.42.72,1.66,1.66,0,0,1-2.35,0,38.07,38.07,0,0,0-5.28-5.49,47.7,47.7,0,0,1,.38,33.4,2.07,2.07,0,0,1-.15.34,1.76,1.76,0,0,1-2.4.66,74,74,0,0,1-39.17-63.73,40.69,40.69,0,0,0-7.49,8.07,1.52,1.52,0,0,1-2.73-.36c-3-8.42-2.55-17.86,2.84-25a20.09,20.09,0,0,1-4.74-1.9,8,8,0,0,1-2.25-1c-.71-.42-1.41-.87-2.11-1.31a1.17,1.17,0,0,1-1.39-.87c-3.46-11.45-4.76-28.59,2.37-39.41l2.53.52a33.7,33.7,0,0,0-3.73,11.35.9.9,0,0,1,.93-.12c16.34,6.94,33.28-.37,46.53-10.06a1.5,1.5,0,0,1,.41-.18h0a66.61,66.61,0,0,0-4.7-6.62l2.27-.81c9.87,9.77,14.09,23.76,13.27,37.52a1.69,1.69,0,0,1-1.59,1.6A25,25,0,0,1,119,276.57Zm6.34-8.89a46.41,46.41,0,0,0-.79-12.11c-14.07,14.36-36.28,19-54.59,10.68.36,3.28.85,6.52,1.36,9.62.75.25,1.5.48,2.24.75a10.1,10.1,0,0,1,1.65.73c7.83.71,15.07,2.94,23.41,1.65,8.89-1.33,20.84-4,26.72-11.32v0Zm-1.83-15.23a1.43,1.43,0,0,1,.24-.16,50.19,50.19,0,0,0-4.48-10.92l0,.06c-12.37,11.5-33.7,17.5-49.21,9.19a.83.83,0,0,1-.23-.19,64.87,64.87,0,0,0-.09,13.93C89.47,270.84,108.25,267.28,123.47,252.45Zm-3.24,57.22a49.19,49.19,0,0,0-13.18-28.75,1.44,1.44,0,0,1-.19-.31c-2.71.61-5.36,1.08-7.76,1.45a68.72,68.72,0,0,1-11.55.87,14.78,14.78,0,0,0-2.17,5.53,25.29,25.29,0,0,1,6.26-2.85,1.17,1.17,0,0,1,.32,0,1.25,1.25,0,0,1,1.27,1.25,61.48,61.48,0,0,0,20.54,44.77,137.83,137.83,0,0,0-3.71-26.12v0a1.36,1.36,0,0,1,.15-1.06,1.37,1.37,0,0,1,1.89-.48A29.43,29.43,0,0,1,120.23,309.67Z" transform="translate(0.04 0)"/><path class="cls-2" d="M133.9,191.72v0Z" transform="translate(0.04 0)"/><path class="cls-4" d="M116.55,278.66A60.89,60.89,0,0,1,133.37,329a40.78,40.78,0,0,0-8.76-7.17,1.73,1.73,0,0,0-2.35,2.35,44.81,44.81,0,0,1,3.45,34.68,71.08,71.08,0,0,1-36-62.82,1.17,1.17,0,0,0,0-.32l1.65-.27c.2,1.29.39,2.54.41,2.69a63.07,63.07,0,0,0,22.55,37.55,1.37,1.37,0,0,0,1.94-.06,1.36,1.36,0,0,0,.37-.94,141,141,0,0,0-3.31-27,25.62,25.62,0,0,1,7.36,6.63,1.41,1.41,0,0,0,2.61-.71,50.76,50.76,0,0,0-13.12-33.9,54.8,54.8,0,0,0,6-2A1.51,1.51,0,0,0,116.55,278.66Z" transform="translate(0.04 0)"/><path class="cls-2" d="M133.47,201.3v0l-1.78,2.22c-15.52-12.47-31-25.39-46.14-38.29l1.11-1.3A257.73,257.73,0,0,1,133.47,201.3Z" transform="translate(0.04 0)"/><path class="cls-5" d="M124.51,255.57a46.41,46.41,0,0,1,.79,12.11c-5.88,7.34-17.83,10-26.72,11.32-8.34,1.29-15.58-.94-23.41-1.65a10.1,10.1,0,0,0-1.65-.73c-.74-.27-1.49-.5-2.24-.75-.51-3.1-1-6.34-1.36-9.62C88.23,274.57,110.44,269.93,124.51,255.57Z" transform="translate(0.04 0)"/><path class="cls-2" d="M125.31,267.67v0Z" transform="translate(0.04 0)"/><path class="cls-5" d="M123.71,252.29a1.43,1.43,0,0,0-.24.16c-15.22,14.83-34,18.39-53.82,11.91a64.87,64.87,0,0,1,.09-13.93.83.83,0,0,0,.23.19c15.51,8.31,36.84,2.31,49.21-9.19l0-.06A50.19,50.19,0,0,1,123.71,252.29Z" transform="translate(0.04 0)"/><path class="cls-2" d="M122.34,104.59l.79,2.63v0l-.05.05a1,1,0,0,1-1.41.09C103.4,93.76,86.19,77.76,69.25,62.49l1-1.12C88.12,74.66,106.62,88.82,122.34,104.59Z" transform="translate(0.04 0)"/><path class="cls-5" d="M117.79,238.88h0a1.5,1.5,0,0,0-.41.18c-13.25,9.69-30.19,17-46.53,10.06a.9.9,0,0,0-.93.12,33.7,33.7,0,0,1,3.73-11.35c.27-.51.55-1,.85-1.5a140,140,0,0,0,18.09,0,78.09,78.09,0,0,0,20.51-4.13A66.61,66.61,0,0,1,117.79,238.88Z" transform="translate(0.04 0)"/><path class="cls-6" d="M107.05,280.92a49.19,49.19,0,0,1,13.18,28.75,29.43,29.43,0,0,0-8.14-5.7,1.37,1.37,0,0,0-1.89.48,1.36,1.36,0,0,0-.15,1.06v0a137.83,137.83,0,0,1,3.71,26.12,61.48,61.48,0,0,1-20.54-44.77A1.25,1.25,0,0,0,92,285.57a1.17,1.17,0,0,0-.32,0,25.29,25.29,0,0,0-6.26,2.85,14.78,14.78,0,0,1,2.17-5.53,68.72,68.72,0,0,0,11.55-.87c2.4-.37,5.05-.84,7.76-1.45A1.44,1.44,0,0,0,107.05,280.92Z" transform="translate(0.04 0)"/><path class="cls-2" d="M115.79,227.35l-2.55,1.34C98.09,218.07,84.62,204.18,70.74,192q-21.45-18.93-42.87-37.93L29,152.67c14.15,12,28.21,23.82,42.45,36C86.17,201.24,102.7,213.14,115.79,227.35Z" transform="translate(0.04 0)"/><path class="cls-2" d="M99.23,231.31a1,1,0,0,1,.26,1l-2.26.32c-12.18-8.12-23-18.48-34.18-27.87S40.94,186.09,30,176.66l.86-1.08q16.45,13,32.82,26.13C75.56,211.31,88.5,220.41,99.23,231.31Z" transform="translate(0.04 0)"/><path class="cls-3" d="M94.82,42.87a1.66,1.66,0,0,0-1.1.7,37.46,37.46,0,0,1-5.07,5.82h-.07c-.76-.47-1.36.37-1.1,1-12.92,11-31.45,10.68-45.62-.17A264,264,0,0,1,62.42,2.57c.16.17.32.34.49.5,6.7,7,13.65,13.33,19.51,21.18C86.86,30.25,91,36.48,94.82,42.87Z" transform="translate(0.04 0)"/><path class="cls-4" d="M91.32,295.4l-1.65.27a1.56,1.56,0,0,0-2.31-1,49,49,0,0,0-8.91,8.6c-1.85-7.5-.33-13.89,3.12-20.88a37.35,37.35,0,0,0,4.35.49,16,16,0,0,0-3.15,7.74c-.14.91.82,2,1.77,1.36a7.47,7.47,0,0,1,6.22-2.4l.18,2.75A28.4,28.4,0,0,0,91.32,295.4Z" transform="translate(0.04 0)"/><path class="cls-2" d="M88,231.69l-1.59,1.66c-19.57-13.72-37.08-31-54.72-47.17l.86-1C50.91,200.68,70.68,215,88,231.69Z" transform="translate(0.04 0)"/><path class="cls-2" d="M64.68,1.35,62.91,3.07c-.17-.16-.33-.33-.49-.5A264,264,0,0,0,41.86,50.22l-.63,2c-.85,2.65-1.62,5.31-2.38,8l.17.07.32.22-.87,1.24h0c-.68,2.5-1.34,5-1.92,7.51l.62.45L36,71.18h0c-.62,2.58-1.21,5.17-1.79,7.77l-.4,2c-.63,3-1.19,6.12-1.7,9.21.62.47,1.24.94,1.86,1.39L32.7,93.32l-1-.85h0c-.5,3-1,6.1-1.39,9.12l-.19,1.56c-.3,2.33-.58,4.65-.85,7,.68.46,1.36.93,2,1.41l-1.41,1.71-.82-.67c-.11,1.14-.24,2.28-.34,3.43h0c-.06.7-.11,1.4-.2,2.08l1.72,1.82-1.83.32h0c-.18,2.69-.37,5.34-.45,8.08a1,1,0,0,1,.43.17l.5.39-1.05,1.35c-.16,3.85-.26,7.7-.26,11.55l1.24,1-1.22,1.52c0,2.43,0,4.86.14,7.28l1.3,1.1-1.17,1.38h0c.13,2.91.31,5.82.55,8.71a.91.91,0,0,1,.38.19l1,.82-1.15,1.39h0c.31,3.18.61,6.34,1.11,9.55l1.1.87L30,176.66c.38,2.48.79,5,1.26,7.41.43.36.86.73,1.29,1.08l-.86,1c.54,2.63,1.12,5.24,1.78,7.84l1.34,1.06L34,196c.71,2.66,1.46,5.31,2.3,7.93.48.42,1,.85,1.46,1.26l-.76.89c.79,2.32,1.61,4.63,2.5,6.92l1.54,1.4-.68.76c.71,1.76,1.45,3.51,2.24,5.25,1.42,1.24,2.92,2.46,4.41,3.69L46,225.23l-2.12-2.09c.86,1.77,1.72,3.55,2.65,5.3l-1.36.79a137.51,137.51,0,0,1-15.47-38.85l-1.24-1.57a.85.85,0,0,1,.83-.08c-1.12-5-2-10-2.71-15l-.06,0,0-.05a.51.51,0,0,1,0-.72,229.18,229.18,0,0,1-1.92-31.2l-.23-.19a.76.76,0,0,1-.26-.37.81.81,0,0,1,.49-1c.1-8.1.45-16.1,1.1-24.1Q26.76,102.75,29,89.66a.73.73,0,0,1,.07-.41A277.92,277.92,0,0,1,59.5.83a1.54,1.54,0,0,1,.36-.44,1.6,1.6,0,0,1,2.27.18A1,1,0,0,1,63.19.49C63.69.77,64.19,1.05,64.68,1.35Z" transform="translate(0.04 0)"/><path class="cls-3" d="M47.78,231.09v0C32.85,250.54,29.45,275,30.86,298.86A69.35,69.35,0,0,1,5.23,261.21a64.14,64.14,0,0,1-2.1-15.44c-.28-22.07,10.66-40.84,26.52-55.39a137.51,137.51,0,0,0,15.47,38.85l.3.51a.7.7,0,0,0,.9.3C46.79,230.42,47.32,230.77,47.78,231.09Z" transform="translate(0.04 0)"/><path class="cls-2" d="M28.41,188.81l1.24,1.57C13.79,204.93,2.85,223.7,3.13,245.77a64.14,64.14,0,0,0,2.1,15.44l-2.77.72C-4.56,235.37,2.9,205.58,28.41,188.81Z" transform="translate(0.04 0)"/><path class="cls-2" d="M103.13,119.39a25.25,25.25,0,1,0-47.76,16.18c4.55,11.56,18.28,18.28,30,14.26a1.26,1.26,0,0,0,1.07.35C100.76,148.73,106.63,131.93,103.13,119.39ZM86.38,147.13a1.53,1.53,0,0,0-1,.52c-9.92,1.62-20.19-.39-25.83-9.8a22.49,22.49,0,0,1,7.53-30.65C77.52,101,91.73,104,98,114.76c6.14,10.55,3.34,30.87-11.61,32.37Z" transform="translate(0.04 0)"/><ellipse class="cls-7" cx="79" cy="126.3" rx="23.65" ry="23.16"/><text x="0.04"></text></svg>