<svg id="Capa_1" data-name="Capa 1" xmlns="http://www.w3.org/2000/svg" viewBox="0 0 151.69 138.1"><defs><style>.cls-1{fill:#fccc63;}.cls-2{fill:#c8cdd1;}.cls-3{fill:#333;}</style></defs><title>trabajo</title><path class="cls-1" d="M552.9,334.43a.15.15,0,0,1,.06.09c.45,2.85-1.68,6.45-4,8.76-2,2-5,3.84-7.19,2.93a6.54,6.54,0,0,1-.79-.41l0,0a57.49,57.49,0,0,0-6.71-7.8c-.76-.78-1.54-1.58-2.29-2.38-2.79-3-5.66-6-8.43-8.95l-2.59-2.74c-6.7-7.08-14.48-15.3-22.11-23.33-3.94-4.16-8-8.34-11.9-12.39s-7.75-8-11.59-12.07l-.31-.33c-6.23-6.55-12.66-13.32-21.15-17.44a.16.16,0,0,1-.07-.09.11.11,0,0,1,0-.11l.27-.32.7-.84h0c.64-.6,1.31-1.25,2-1.94,2.07-2.07,4.09-4.27,6-6.4l1.84-2a.13.13,0,0,1,.21,0c4.1,8.72,11,15.27,17.67,21.61l.3.29c4,3.84,8.12,7.78,12.06,11.58s8.25,8,12.4,11.92c8,7.61,16.25,15.4,23.34,22.1l2.74,2.59c2.92,2.77,6,5.64,8.94,8.44.81.75,1.63,1.55,2.42,2.31A53.36,53.36,0,0,0,552.9,334.43Z" transform="translate(-404.71 -211.86)"/><path class="cls-2" d="M450.1,258a10.67,10.67,0,0,0-2.82-3.3,10.44,10.44,0,0,0-4.74-2.75l-.44-.18c-.62-.41-1.27-.78-1.89-1.13s-1.26-.7-1.83-1.08-1-.73-1.49-1.11a9.65,9.65,0,0,0-4-2.2.55.55,0,0,0-.49.14.49.49,0,0,0-.12.47c.45,2,2.06,3.13,3.62,4.26l.62.45a.13.13,0,0,1,.05.13.12.12,0,0,1-.1.09,20.57,20.57,0,0,0-10.45,5.65,17.26,17.26,0,0,0-4.58,7.66.15.15,0,0,1-.1.09.14.14,0,0,1-.12,0A71.83,71.83,0,0,0,416,260l-.69-.66c-.18-.16-.51-.44-.94-.79-2.08-1.73-5.94-4.94-6-7a1.32,1.32,0,0,1,.58-1.2c3.59-2.62,7.45-5,11.18-7.37,1.86-1.16,3.79-2.37,5.65-3.58a1.46,1.46,0,0,0,.63-.84.09.09,0,0,1,0-.06,1.36,1.36,0,0,0,.38-1.2c-.47-3.22,1-6.6,4.48-10a49.22,49.22,0,0,1,8.15-6.27,39.72,39.72,0,0,1,17.36-5.85,35.7,35.7,0,0,1,21.1,4.67.14.14,0,0,1,.05.16.12.12,0,0,1-.15.07,22.77,22.77,0,0,0-16.19,2.15,17.36,17.36,0,0,0-4.45,3.19,12.27,12.27,0,0,0-3.78,7.87c-.25,3.59,3.44,6.19,6.69,8.49,1.05.75,2.05,1.45,2.87,2.16a.14.14,0,0,1,.05.08.18.18,0,0,1,0,.1l-2.18,2.29a130,130,0,0,0-9.53,10.75l-.3.32-.64.68a.13.13,0,0,1-.1,0A.14.14,0,0,1,450.1,258Z" transform="translate(-404.71 -211.86)"/><path class="cls-3" d="M457.63,233.06c-.17-1.9.72-3.89,2.57-5.74a18.28,18.28,0,0,1,6-3.86,19.25,19.25,0,0,1,12.83-.09,31.31,31.31,0,0,1,9.29,5,1.2,1.2,0,0,0,1.54-.13.75.75,0,0,0,.05-1.05c-8.67-11.77-22.3-17.17-37.39-14.8-6.53,1-13.19,4.18-19.8,9.37a42.07,42.07,0,0,0-3.75,3.29c-4.2,4.19-5.89,8.17-5,11.83a.13.13,0,0,1-.05.13l-11.82,7.75c-.56.37-1.17.72-1.75,1.07a19.38,19.38,0,0,0-3.89,2.74,6.24,6.24,0,0,0-1.68,2.75c-.55,2,1.93,4,3.57,5.41.36.3.66.55.9.78.84.79,1.7,1.61,2.52,2.41,2.06,2,4.19,4,6.42,5.88a10,10,0,0,0,2.53,2.18,1.91,1.91,0,0,0,2.32-.55,6.81,6.81,0,0,0,1.61-3l0-.05c.67-.79,1.31-1.62,1.93-2.42a38.21,38.21,0,0,1,3.17-3.77A14.16,14.16,0,0,1,435,254.8c3.83-1.43,8.61,0,12.79,3.71l0,0a5.31,5.31,0,0,0,1.06,1.7l0,0a1.14,1.14,0,0,0,.63.68,1,1,0,0,0,.8,0h0a1.48,1.48,0,0,0,.68-.19,7.16,7.16,0,0,0,1.33-1,.12.12,0,0,1,.16,0c12.88,9.25,23.66,21.28,34.1,32.92,3.52,3.92,7.15,8,10.8,11.85,7.19,7.63,14.51,15.36,21.59,22.85l.49.51c1.84,1.95,3.69,4.08,5.47,6.15a123,123,0,0,0,9.09,9.78c1.7,1.82,3.49,3.43,4.69,4.48,3.21,2.82,7.42,1.69,10-.54,1-.91,2.06-1.81,3-2.8,2.89-2.89,4.34-5.39,4.58-7.87.28-2.91-.81-5.36-2.86-6.39l0,0c-3.57-4.61-8.19-8.61-12.66-12.48-2.06-1.78-4.2-3.63-6.14-5.47l-1.05-1c-7.31-6.91-14.86-14.06-22.31-21.07-3.88-3.65-7.94-7.29-11.87-10.81-11.79-10.57-24-21.49-33.28-34.6a.12.12,0,0,1,0-.16l.09-.09a1.56,1.56,0,0,0,0-2.16,20.35,20.35,0,0,0-4.52-4C459.18,237,457.81,235.1,457.63,233.06ZM552.9,334.43a.12.12,0,0,1,.06.09c.45,2.85-1.68,6.46-4,8.77-2,2-5,3.83-7.19,2.92a5.78,5.78,0,0,1-.78-.41l0,0a57.08,57.08,0,0,0-6.7-7.8c-.76-.78-1.54-1.59-2.29-2.39-2.8-3-5.66-6-8.43-8.94l-2.6-2.74c-6.7-7.08-14.48-15.3-22.1-23.33-3.94-4.15-8-8.34-11.9-12.39s-7.75-8-11.6-12.07l-.31-.32c-6.23-6.55-12.66-13.33-21.15-17.45a.12.12,0,0,1-.07-.09.13.13,0,0,1,0-.11l.27-.32.71-.84h0c.64-.6,1.31-1.25,2-1.93,2.07-2.07,4.09-4.27,6-6.4l1.84-2a.13.13,0,0,1,.11,0,.12.12,0,0,1,.09.07c4.1,8.71,11,15.27,17.67,21.61l.3.29c4,3.84,8.11,7.78,12.06,11.58s8.25,8,12.4,11.91c8,7.62,16.25,15.4,23.33,22.1l2.74,2.59c2.93,2.77,6,5.64,8.95,8.43.81.76,1.62,1.55,2.41,2.32A54.23,54.23,0,0,0,552.9,334.43ZM453.38,233.2c-.25,3.59,3.44,6.2,6.69,8.49,1.06.75,2.05,1.45,2.87,2.16a.12.12,0,0,1,0,.09.13.13,0,0,1,0,.09l-2.18,2.29a130.07,130.07,0,0,0-9.53,10.75l-.3.32-.63.67h0a.12.12,0,0,1-.2,0,10.8,10.8,0,0,0-2.82-3.31,10.49,10.49,0,0,0-4.74-2.75l-.44-.18c-.62-.41-1.27-.77-1.9-1.13s-1.25-.7-1.82-1.08-1-.73-1.49-1.1a9.75,9.75,0,0,0-4-2.2.54.54,0,0,0-.49.14.49.49,0,0,0-.13.47c.46,2,2.07,3.13,3.62,4.27l.62.45a.12.12,0,0,1-.05.22,20.57,20.57,0,0,0-10.45,5.65,17.25,17.25,0,0,0-4.58,7.66.12.12,0,0,1-.09.09.12.12,0,0,1-.12,0,72.84,72.84,0,0,0-5.23-5.24l-.69-.65c-.18-.17-.51-.45-.94-.8-2.08-1.73-5.95-4.94-6-7a1.32,1.32,0,0,1,.58-1.19c3.59-2.62,7.45-5,11.18-7.37,1.86-1.16,3.79-2.37,5.65-3.58a1.46,1.46,0,0,0,.63-.84.13.13,0,0,1,0-.05,1.36,1.36,0,0,0,.38-1.2c-.46-3.23,1-6.6,4.48-10a49.83,49.83,0,0,1,8.15-6.28,39.7,39.7,0,0,1,17.36-5.85,35.68,35.68,0,0,1,21.09,4.68.13.13,0,0,1,.05.16.12.12,0,0,1-.15.07c-5.14-1.35-10.74-.61-16.19,2.15a17.35,17.35,0,0,0-4.46,3.19A12.3,12.3,0,0,0,453.38,233.2Z" transform="translate(-404.71 -211.86)"/></svg>