<svg id="Capa_1" data-name="Capa 1" xmlns="http://www.w3.org/2000/svg" viewBox="0 0 598.04 172.87"><defs><style>.cls-1{fill:#e95950;}.cls-2{fill:none;stroke:#000;stroke-miterlimit:10;stroke-width:0.1px;}.cls-3{fill:#fccc63;}</style></defs><title>cpatarget</title><path class="cls-1" d="M728.41,261.06a11.93,11.93,0,0,1,.53,6.05c-1.17,8.43-10.26,13.37-18.17,11.78C716.53,273,722.73,267.34,728.41,261.06Z" transform="translate(-226.47 -179.08)"/><path class="cls-1" d="M715.44,257.09a16.09,16.09,0,0,1,3.84-.9,92.92,92.92,0,0,0-9.37,9.45l-7.72,7.12a13.82,13.82,0,0,1-1.57-3.69l10.7-11.21c-.59-.65-6.52,6.28-10.74,11.07a12.87,12.87,0,0,1-.4-3.4c.1-7.25,6.9-9.2,13-9.1A2,2,0,0,0,715.44,257.09Z" transform="translate(-226.47 -179.08)"/><path d="M823.46,244.77a69.61,69.61,0,0,1,1,13.87h-.4a53.21,53.21,0,0,0-3.85,3.82,70.84,70.84,0,0,0,.26-12.35A51.58,51.58,0,0,0,823.46,244.77Z" transform="translate(-226.47 -179.08)"/><path d="M824.09,258.63h.4A75.17,75.17,0,0,1,819,284.72a94.84,94.84,0,0,1-4.48,9.57h0l-16.11,17A95.57,95.57,0,0,0,817,277.82c1.87-2.59,3.88-5.22,5.12-7.36l-4.46,5.16A80.23,80.23,0,0,0,820.18,263Z" transform="translate(-226.47 -179.08)"/><path d="M824.09,258.63,820.18,263l.06-.52A53.21,53.21,0,0,1,824.09,258.63Z" transform="translate(-226.47 -179.08)"/><path d="M823.42,244.55a2.07,2.07,0,0,1,0,.22,51.58,51.58,0,0,1-3,5.33c0-.66-.1-1.32-.17-2Z" transform="translate(-226.47 -179.08)"/><path d="M823.42,244.55l-3.09,3.58a61.33,61.33,0,0,0-1.77-9.87c.9-1,1.76-2,2.56-2.86A66.93,66.93,0,0,1,823.42,244.55Z" transform="translate(-226.47 -179.08)"/><path d="M817.66,275.62l4.46-5.16c-1.24,2.14-3.25,4.77-5.12,7.36C817.24,277.09,817.45,276.36,817.66,275.62Z" transform="translate(-226.47 -179.08)"/><path d="M821.11,235.37s0,0,0,0c-.8.87-1.66,1.83-2.56,2.86,0-.09,0-.17-.07-.26Z" transform="translate(-226.47 -179.08)"/><path d="M821.11,235.37,818.49,238a58.33,58.33,0,0,0-4.4-11.4l.91-1c.34-.58.88-1.14,1.17-1.72A68.06,68.06,0,0,1,821.11,235.37Z" transform="translate(-226.47 -179.08)"/><path class="cls-1" d="M820.33,248.13c.07.65.13,1.31.17,2-5.78,9.29-15.53,20.18-24.13,26.25.1-.28.2-.56.31-.83Z" transform="translate(-226.47 -179.08)"/><path class="cls-1" d="M773,315.39,820.18,263a80.23,80.23,0,0,1-2.52,12.65l-40.18,46.46c-5.05,4.82-10.22,9.95-14.09,15.35a108.15,108.15,0,0,1-15,5.6C756.88,334.1,765,324.78,773,315.39Z" transform="translate(-226.47 -179.08)"/><path class="cls-1" d="M818.49,238l-18.15,18.3A55.88,55.88,0,0,0,799.23,244a80.23,80.23,0,0,0,7.17-8.56l7.69-8.87A58.33,58.33,0,0,1,818.49,238Z" transform="translate(-226.47 -179.08)"/><path d="M816,223.54c.05.1.11.19.15.29-.29.58-.83,1.14-1.17,1.72l-.91,1c-.1-.21-.2-.41-.32-.62C814.51,225.13,815.26,224.31,816,223.54Z" transform="translate(-226.47 -179.08)"/><path d="M814.47,294.28h0a105.58,105.58,0,0,1-36,38.37l-.17-.26,12.77-13.47c3.11-2.51,6.18-4.84,8.66-7C805.47,306.49,810.79,300.63,814.47,294.28Z" transform="translate(-226.47 -179.08)"/><path d="M798.36,311.3l16.11-17c-3.68,6.35-9,12.21-14.68,17.61-2.48,2.2-5.55,4.53-8.66,7l.6-.64q2.14-2,4.19-4.25C796.75,313.15,797.56,312.23,798.36,311.3Z" transform="translate(-226.47 -179.08)"/><path d="M816,223.54c-.76.77-1.51,1.59-2.25,2.44a55.51,55.51,0,0,0-3.25-5.45l2.56-1.9Q814.66,221,816,223.54Z" transform="translate(-226.47 -179.08)"/><path d="M812.71,218.07l.37.56-2.56,1.9c-.09-.14-.18-.28-.28-.42C811.06,219.4,811.88,218.72,812.71,218.07Z" transform="translate(-226.47 -179.08)"/><path d="M812.71,218.07c-.83.65-1.65,1.33-2.47,2a61.17,61.17,0,0,0-6-7.47l-.34-.36c.88-.75,1.78-1.48,2.7-2.17A70.93,70.93,0,0,1,812.71,218.07Z" transform="translate(-226.47 -179.08)"/><path class="cls-1" d="M810.24,220.11c-1.53,1.3-3,2.67-4.56,4l-10.32,7.73a52.57,52.57,0,0,0-4.42-7.95c4.55-3.46,8.52-7.88,12.94-11.65l.34.36A61.17,61.17,0,0,1,810.24,220.11Z" transform="translate(-226.47 -179.08)"/><path d="M806.38,209.88a2.05,2.05,0,0,1,.2.23c-.92.69-1.82,1.42-2.7,2.17l-.15-.15Z" transform="translate(-226.47 -179.08)"/><path d="M806.38,209.88l-2.65,2.25q-1.89-2-3.86-3.81l3.06-2.07C804.13,207.42,805.28,208.64,806.38,209.88Z" transform="translate(-226.47 -179.08)"/><path d="M802.22,205.56c.24.22.48.45.71.69l-3.06,2.07-.63-.57C800.23,207,801.22,206.27,802.22,205.56Z" transform="translate(-226.47 -179.08)"/><path d="M799.23,244a55.88,55.88,0,0,1,1.11,12.27l-3.47,3.5A51.26,51.26,0,0,0,794.62,241a55.37,55.37,0,0,0-2.41-6.42,34.43,34.43,0,0,0,3.41-2.07,55.65,55.65,0,0,1,2.18,5.9,53.47,53.47,0,0,1,1.38,5.4l-1.48,1.71C798.22,245,798.73,244.54,799.23,244Z" transform="translate(-226.47 -179.08)"/><path d="M796.87,259.8l3.47-3.5c0,.4,0,.81,0,1.21a23.47,23.47,0,0,1-3.43,2.31A0,0,0,0,0,796.87,259.8Z" transform="translate(-226.47 -179.08)"/><path d="M802.22,205.56c-1,.71-2,1.44-3,2.19-2.08-1.89-4.23-3.65-6.43-5.28l.21-.23.81-.64c.46-.8.89-1.18,1.37-2l0-.05A79.32,79.32,0,0,1,802.22,205.56Z" transform="translate(-226.47 -179.08)"/><path d="M799.18,243.77a2.38,2.38,0,0,1,.05.26c-.5.51-1,1-1.53,1.45Z" transform="translate(-226.47 -179.08)"/><path class="cls-1" d="M799.24,207.75c-3.24,2.48-6.42,5.12-9.66,7.55L786,217.7a54.41,54.41,0,0,0-5.18-4.9c4-2.35,8.7-6.68,12-10.33C795,204.1,797.16,205.86,799.24,207.75Z" transform="translate(-226.47 -179.08)"/><path d="M796.87,259.82a23.47,23.47,0,0,0,3.43-2.31,59.55,59.55,0,0,1-3.62,18L795.36,277c.33-.22.67-.45,1-.69-6.14,16.08-18.86,29.86-34.49,38.35l1.19-1.36c-.83.65-1.66,1.33-2.5,2.05-.71.37-1.43.73-2.15,1.08a94.37,94.37,0,0,1-13.62,5.28,46.81,46.81,0,0,0,3.58-4l-4,4.11a97.35,97.35,0,0,1-15.11,3.22l1.65-1.92.74-.68a3.17,3.17,0,0,0,.61-.86l.07-.08a2.5,2.5,0,0,0,.22-.24l-.08-.4C762.58,315.45,794.65,291.26,796.87,259.82Z" transform="translate(-226.47 -179.08)"/><path d="M796.68,275.52c-.11.27-.21.55-.31.83h0c-.33.24-.67.47-1,.69Z" transform="translate(-226.47 -179.08)"/><path d="M795.36,231.88c.09.19.17.39.26.59a34.43,34.43,0,0,1-3.41,2.07c0-.08-.07-.16-.1-.23Z" transform="translate(-226.47 -179.08)"/><path d="M795.36,231.88l-3.25,2.43a52.24,52.24,0,0,0-4.55-8.08,33,33,0,0,0,3.38-2.3A52.57,52.57,0,0,1,795.36,231.88Z" transform="translate(-226.47 -179.08)"/><path d="M795.24,199.57l0,.05c-.61.79-1.35,1.68-2.18,2.62l-.25.2a84.29,84.29,0,0,0-7.47-5l.58-.47,1.38-2.39.21-.34q3.74,2.28,7.31,5Z" transform="translate(-226.47 -179.08)"/><path d="M795.2,199.62c-.48.8-.91,1.18-1.37,2l-.81.64C793.85,201.3,794.59,200.41,795.2,199.62Z" transform="translate(-226.47 -179.08)"/><path d="M793,202.24l-.21.23a.05.05,0,0,0,0,0Z" transform="translate(-226.47 -179.08)"/><path d="M790.61,319.35l1.12-1.06-.6.64Z" transform="translate(-226.47 -179.08)"/><path d="M791.13,318.93,778.36,332.4a32.63,32.63,0,0,1,6.7-8.27c1.9-1.52,3.76-3.12,5.55-4.78Z" transform="translate(-226.47 -179.08)"/><path d="M790.52,223.31l.42.62a33,33,0,0,1-3.38,2.3,2.48,2.48,0,0,0-.19-.26Z" transform="translate(-226.47 -179.08)"/><path d="M790.52,223.31,787.37,226a49.94,49.94,0,0,0-4.78-5.89l.23-.22c1.11-.64,2.2-1.34,3.28-2.07A51.87,51.87,0,0,1,790.52,223.31Z" transform="translate(-226.47 -179.08)"/><path d="M787.47,194.26l-.21.34c-.8.77-1.61,1.64-2.45,2.57a90.67,90.67,0,0,0-8.12-4.23l.71-.93,1-.83a11.2,11.2,0,0,0,.82-1.38A91.07,91.07,0,0,1,787.47,194.26Z" transform="translate(-226.47 -179.08)"/><path d="M787.26,194.6,785.88,197l-.58.47-.49-.29C785.65,196.24,786.46,195.37,787.26,194.6Z" transform="translate(-226.47 -179.08)"/><path d="M786,217.7l.08.09c-1.08.73-2.17,1.43-3.28,2.07Z" transform="translate(-226.47 -179.08)"/><path d="M786,217.7l-3.2,2.16-.23.22a60.41,60.41,0,0,0-21.68-14.35l.16-.39a8.67,8.67,0,0,0,4.81-1.76,66.34,66.34,0,0,1,7.21,3.74l-2.37,1.91a12.3,12.3,0,0,0,3.19-1.41,58.6,58.6,0,0,1,6.32,4.48l-2.41,1.89a15.26,15.26,0,0,0,3-1.39A54.41,54.41,0,0,1,786,217.7Z" transform="translate(-226.47 -179.08)"/><path d="M759.46,224.63c-.24.54-.49,1.07-.75,1.6a55.47,55.47,0,0,0-7.87-3.92l.58-.68a3.75,3.75,0,0,0,.55-2l.17-.45c17.06,6.38,31,19,32.71,38.35,2.21,25.61-24.84,45.48-46.6,51.89a65.82,65.82,0,0,1-19.38,2.55l0-1.74c.89,0,2-.72,3.17-1.88a60.73,60.73,0,0,0,19.92-4.2c1.29-.51,2.61-1.07,3.94-1.68a6,6,0,0,0,.06.79c.19-.37.39-.74.6-1.1,18.25-8.57,39.11-26.43,33.93-48.35,0-.2-.09-.39-.15-.58A37.47,37.47,0,0,0,776,243a43.73,43.73,0,0,0-4.09-5.64l.35-.45c.45-.38.89-1.18.46-.8-.25.42-.53.83-.81,1.25a50.55,50.55,0,0,0-6.87-6.69c.51-.65,1-1.29,1.55-1.93-.42.38-.9,1.18-1.33,1.57l-.25.34a54.75,54.75,0,0,0-6.18-4.32l.1-.12A7.94,7.94,0,0,1,759.46,224.63Z" transform="translate(-226.47 -179.08)"/><path d="M785.06,324.13a32.63,32.63,0,0,0-6.7,8.27l.17.26a119,119,0,0,1-17.28,9.26l-.31-.71,3.82-4.41A104,104,0,0,0,785.06,324.13Z" transform="translate(-226.47 -179.08)"/><path class="cls-1" d="M784.81,197.17l-2.12,2.39-9.6,7.76a66.34,66.34,0,0,0-7.21-3.74c3.71-2.42,7.89-6.9,10.81-10.64A90.67,90.67,0,0,1,784.81,197.17Z" transform="translate(-226.47 -179.08)"/><path d="M780.23,212.3c.21.16.41.32.61.5a15.26,15.26,0,0,1-3,1.39Z" transform="translate(-226.47 -179.08)"/><path class="cls-1" d="M780.51,253.78c5.18,21.92-15.68,39.78-33.93,48.35,5.3-9.42,15.09-16.41,20.78-25.17a136.72,136.72,0,0,0,9.28-17.13c1.23-2.1,3.82-5.71,3.57-6.59l.15,0C780.42,253.39,780.46,253.58,780.51,253.78Z" transform="translate(-226.47 -179.08)"/><path class="cls-1" d="M780.36,253.2l-.15,0a.25.25,0,0,0-.26-.2l-32.49,46.17c-.8,1.36-1.53,1.81-1.54,3.23-1.33.61-2.65,1.17-3.94,1.68a59.91,59.91,0,0,1-9.78,2.94l0-.16c3.81-1.82,10.83-15.39,14-19.72,8.53-11.41,17.81-22,24.37-34.73.76-1.31,3.76-7.46,4.54-9l.14-.21a.48.48,0,0,0,0-.12l.8-.16A37.47,37.47,0,0,1,780.36,253.2Z" transform="translate(-226.47 -179.08)"/><path d="M779,189.7l.21.1a11.2,11.2,0,0,1-.82,1.38l-1,.83C778,191.19,778.58,190.39,779,189.7Z" transform="translate(-226.47 -179.08)"/><path d="M779,189.7c-.45.69-1,1.49-1.63,2.31l-1,.81q-3.85-1.75-7.86-3.17c.73-.48,1.47-1,2.22-1.42.88-.76-.4,0-.84.37l-1.53,1c-3.35-1.18-6.76-2.18-10.23-3,.39-.4.45-1.16.86-1.53-.47.38-1,.84-1.59,1.36a125.84,125.84,0,0,0-15.55-2.62q-3.09-.32-6.21-.51a2.43,2.43,0,0,0,.48-1.28l-1.88,1.2c-3.44-.18-6.9-.24-10.36-.19l1.56-1.27c-.42-.29-1.48.25-2.93,1.3-3.8.09-7.61.3-11.4.63l2.41-2.25-.14-1.79C735.89,177.89,758.83,180.09,779,189.7Z" transform="translate(-226.47 -179.08)"/><path d="M776.41,192.82l1-.81-.71.93Z" transform="translate(-226.47 -179.08)"/><path d="M773.09,207.32c.28.16.55.33.82.5a12.3,12.3,0,0,1-3.19,1.41Z" transform="translate(-226.47 -179.08)"/><path d="M772.76,236.11c.43-.38,0,.42-.46.8l-.35.45C772.23,236.94,772.51,236.53,772.76,236.11Z" transform="translate(-226.47 -179.08)"/><path class="cls-1" d="M772,237.36l0,0L755,259.12a32.82,32.82,0,0,0-3.86-9.26c2.57-3.48,5-7.05,7.57-10.59l5.55-7.54.84-1.06A50.55,50.55,0,0,1,772,237.36Z" transform="translate(-226.47 -179.08)"/><path d="M769.93,188.6c.44-.39,1.72-1.13.84-.37-.75.46-1.49.94-2.22,1.42l-.15-.05Z" transform="translate(-226.47 -179.08)"/><path class="cls-1" d="M768.4,189.6l-14.65,9.64c-3-.85-6.18-1.56-9.35-2.12,3.38-2,7.23-5.43,10.38-8.32l3.33-2.17,0-.06h0C761.64,187.42,765.05,188.42,768.4,189.6Z" transform="translate(-226.47 -179.08)"/><path d="M765.3,230.31c.43-.39.91-1.19,1.33-1.57-.53.64-1,1.28-1.55,1.93l0,0Z" transform="translate(-226.47 -179.08)"/><path d="M764.15,202.82c.58.24,1.16.49,1.73.76a8.67,8.67,0,0,1-4.81,1.76Z" transform="translate(-226.47 -179.08)"/><path d="M764.76,336.8l-3.82,4.41q1.11-1.9,2.45-3.78C763.85,337.23,764.31,337,764.76,336.8Z" transform="translate(-226.47 -179.08)"/><path d="M764.15,202.82l-3.08,2.52-.16.39a84.77,84.77,0,0,0-11.44-3.66,51,51,0,0,0,4.86-2.67A84.3,84.3,0,0,1,764.15,202.82Z" transform="translate(-226.47 -179.08)"/><path d="M763.06,313.34l-1.19,1.36c-.43.24-.87.47-1.31.69C761.4,314.67,762.23,314,763.06,313.34Z" transform="translate(-226.47 -179.08)"/><path class="cls-1" d="M761.87,314.7l-27.43,31.49-.72.12c7.87-10.79,17.54-22.93,26.84-30.92C761,315.17,761.44,314.94,761.87,314.7Z" transform="translate(-226.47 -179.08)"/><path d="M763.39,337.43q-1.33,1.88-2.45,3.78l.31.71A120.57,120.57,0,0,1,743.64,348v0q2.4-2.45,4.76-4.94A108.15,108.15,0,0,0,763.39,337.43Z" transform="translate(-226.47 -179.08)"/><path d="M759.46,224.63a7.94,7.94,0,0,0-.49,1.58l-.1.12-.16-.1C759,225.7,759.22,225.17,759.46,224.63Z" transform="translate(-226.47 -179.08)"/><path class="cls-1" d="M758.71,226.23l-.38.76-12.68,15.63a43.8,43.8,0,0,0-6.43-5.67c3.08-1.29,5.43-5.85,7.79-10.14l3.83-4.5A55.47,55.47,0,0,1,758.71,226.23Z" transform="translate(-226.47 -179.08)"/><path d="M759,185c-.41.37-.47,1.13-.86,1.53h0l-.72-.17C758,185.88,758.56,185.42,759,185Z" transform="translate(-226.47 -179.08)"/><path d="M755.5,262.22a24.51,24.51,0,0,1-4.62,16.53c-4.54,6.56-11.8,11.7-19.28,14.78a10.62,10.62,0,0,0,.68-1.85l-1.62,2.22a43.52,43.52,0,0,1-8.44,2.36c-.29.05-.59.1-.88.13l1.72-2c-.38-.89-1.45.43-2.59,2.12a41.48,41.48,0,0,1-8.37.26l1.88-2.12a11.33,11.33,0,0,0-2.58,2.06,36.92,36.92,0,0,1-7-1.31l1.81-2,.28-1.24a34.62,34.62,0,0,0,14.92.42c13.19-2.76,30.73-12.83,30.37-28.46,0-.21,0-.43,0-.65q1.71-1.79,3.35-3.63A22.68,22.68,0,0,1,755.5,262.22Z" transform="translate(-226.47 -179.08)"/><path d="M755,259.12q.09.35.15.69-1.64,1.85-3.35,3.63a1.5,1.5,0,0,0,0-.2Z" transform="translate(-226.47 -179.08)"/><path d="M755,259.12l-3.22,4.12a25.49,25.49,0,0,0-3.14-10.08c.85-1.09,1.68-2.19,2.5-3.3A32.82,32.82,0,0,1,755,259.12Z" transform="translate(-226.47 -179.08)"/><path d="M753.75,199.24c.19,0,.39.1.58.16a51,51,0,0,1-4.86,2.67h0Z" transform="translate(-226.47 -179.08)"/><path d="M753.75,199.24l-4.3,2.83a114.26,114.26,0,0,0-22.52-3c1.2-1,2.68-2.24,4.24-3.52,3.82.26,7.62.69,11.37,1.3l-2.87,1.87a9,9,0,0,0,4.73-1.55C747.57,197.68,750.7,198.39,753.75,199.24Z" transform="translate(-226.47 -179.08)"/><path d="M752.14,219.15l-.17.45a13.5,13.5,0,0,0-2,2.36c-.43-.17-.85-.33-1.28-.48-2-.69-4-1.31-6-1.84a2.54,2.54,0,0,0,.27-.6l-.47.55a65.46,65.46,0,0,0-9.31-1.72,57.89,57.89,0,0,0-8.94-.32c-.22,0-.71,0-1.41.12.25-.36.49-.71.72-1.06l.67-.79c.44-.37.45-.79.91-1.57v-.07A81.29,81.29,0,0,1,752.14,219.15Z" transform="translate(-226.47 -179.08)"/><path d="M752,219.6a3.75,3.75,0,0,1-.55,2l-.58.68-.91-.35A13.5,13.5,0,0,1,752,219.6Z" transform="translate(-226.47 -179.08)"/><path d="M751,249.69l.1.17c-.82,1.11-1.65,2.21-2.5,3.3l-.07-.12Z" transform="translate(-226.47 -179.08)"/><path d="M751,249.69,748.55,253a38.71,38.71,0,0,0-5.32-7.48l.14-.13c.92-.71,1.84-1.48,2.74-2.31A43.71,43.71,0,0,1,751,249.69Z" transform="translate(-226.47 -179.08)"/><path d="M748,343.15a3.31,3.31,0,0,0,.42-.12q-2.35,2.49-4.76,4.94Z" transform="translate(-226.47 -179.08)"/><path d="M744.34,321.89l4-4.11a46.81,46.81,0,0,1-3.58,4Z" transform="translate(-226.47 -179.08)"/><path d="M748,343.15,743.63,348v0a116,116,0,0,1-12.89,2.65l0-.2,3.72-4.27A109.75,109.75,0,0,0,748,343.15Z" transform="translate(-226.47 -179.08)"/><path d="M746.58,302.13c-.21.36-.41.73-.6,1.1a6,6,0,0,1-.06-.79Z" transform="translate(-226.47 -179.08)"/><path d="M745.65,242.62l.46.5c-.9.83-1.82,1.6-2.74,2.31Z" transform="translate(-226.47 -179.08)"/><path d="M745.65,242.62l-2.28,2.81-.14.13a35.38,35.38,0,0,0-14.08-9.74,8.77,8.77,0,0,0,3.58-2.62,36.92,36.92,0,0,1,6,3.38l-.59.69a4.4,4.4,0,0,0,1.11-.32A43.8,43.8,0,0,1,745.65,242.62Z" transform="translate(-226.47 -179.08)"/><path class="cls-1" d="M744.34,321.89l-4.84,4.92c-2.43,2.27-4.86,4.56-6.93,6.89-.37.41-.76.86-1.14,1.32L719,347.65a113.66,113.66,0,0,1-12.38-.32c8.29-5.4,16.21-14.78,22.61-22.22A97.35,97.35,0,0,0,744.34,321.89Z" transform="translate(-226.47 -179.08)"/><path d="M742.47,219.59l.47-.55a2.54,2.54,0,0,1-.27.6Z" transform="translate(-226.47 -179.08)"/><path d="M742.54,196.8c.62.1,1.24.2,1.86.32a9,9,0,0,1-4.73,1.55Z" transform="translate(-226.47 -179.08)"/><path class="cls-1" d="M742.47,219.59l-11,13.06a26.53,26.53,0,0,0-8.73-1.89l.54-.75,9.85-11.58.06-.56A65.46,65.46,0,0,1,742.47,219.59Z" transform="translate(-226.47 -179.08)"/><path class="cls-1" d="M741.89,183.78l-.19,1.84-10.88,9.86c-3.58-.24-7.18-.33-10.75-.3L735.21,184c.17-.27.33-.5.47-.71Q738.8,183.47,741.89,183.78Z" transform="translate(-226.47 -179.08)"/><path d="M738.7,236.58l.52.37a4.4,4.4,0,0,1-1.11.32Z" transform="translate(-226.47 -179.08)"/><path d="M736.16,182a2.43,2.43,0,0,1-.48,1.28l-1.4-.08Z" transform="translate(-226.47 -179.08)"/><path d="M734.44,346.19l-3.72,4.27c1-1.35,2-2.74,3-4.15Z" transform="translate(-226.47 -179.08)"/><path d="M725.65,256.84l-.43.44a9.4,9.4,0,0,0-5.34-1.13,1.92,1.92,0,0,0,.23-.64c-.28.22-.56.44-.83.68a16.09,16.09,0,0,0-3.84.9,2,2,0,0,1-2.29-.66c-6.07-.1-12.87,1.85-13,9.1a12.87,12.87,0,0,0,.4,3.4c-1,1.16-1.94,2.2-2.66,3l-.33.35a15.13,15.13,0,0,1-1.19-6.95c.68-10.53,10.77-13.57,19.86-12.45l.12,0c4.21-1.11,8.59-1.17,12.23,1.7,3.24,2.55,4.64,7.15,4.3,11.15-.93,10.54-10.61,18.75-21.34,17.11a17.47,17.47,0,0,1-3.5-.9l.14-.39c.84-.89,1.69-1.78,2.56-2.66,7.91,1.59,17-3.35,18.17-11.78a11.93,11.93,0,0,0-.53-6.05l.43-.48a2.64,2.64,0,0,0-.51.29,7.42,7.42,0,0,0-3-3.54A2.89,2.89,0,0,1,725.65,256.84Z" transform="translate(-226.47 -179.08)"/><path d="M732.44,320.93l.08.4a1.55,1.55,0,0,0-.22.24l-.07.08c-.44.5-.87,1-1.35,1.54l-2.15,2a90,90,0,0,1-11,.77,30.43,30.43,0,0,0,3.2-3.67v0A83.27,83.27,0,0,0,732.36,321Z" transform="translate(-226.47 -179.08)"/><path d="M732.52,321.33a2.5,2.5,0,0,1-.22.24A1.55,1.55,0,0,1,732.52,321.33Z" transform="translate(-226.47 -179.08)"/><path d="M733.72,346.31c-1,1.41-2,2.8-3,4.15l0,.2a112.63,112.63,0,0,1-29,.65l.16-1.38a33.8,33.8,0,0,0,4.7-2.6,113.66,113.66,0,0,0,12.38.32l-2.69,2.74a21.57,21.57,0,0,0,4-2.78A117.25,117.25,0,0,0,733.72,346.31Z" transform="translate(-226.47 -179.08)"/><path d="M730.66,293.9l1.62-2.22a10.62,10.62,0,0,1-.68,1.85Z" transform="translate(-226.47 -179.08)"/><path d="M732.23,321.65a3.17,3.17,0,0,1-.61.86l-.74.68C731.36,322.66,731.79,322.15,732.23,321.65Z" transform="translate(-226.47 -179.08)"/><path d="M731.44,232.65l1.29.55a8.77,8.77,0,0,1-3.58,2.62l-.3-.1Z" transform="translate(-226.47 -179.08)"/><path d="M731.44,232.65l-2.59,3.07a20.08,20.08,0,0,0-9.23-1c1-1.2,2.07-2.56,3.09-4A26.53,26.53,0,0,1,731.44,232.65Z" transform="translate(-226.47 -179.08)"/><path d="M730.82,195.48l.35,0c-1.56,1.28-3,2.5-4.24,3.52h0Z" transform="translate(-226.47 -179.08)"/><path d="M728.73,325.17l2.15-2-1.65,1.92A4.26,4.26,0,0,1,728.73,325.17Z" transform="translate(-226.47 -179.08)"/><path d="M730.82,195.48,726.91,199c-4-.16-8.09-.13-12.1.06l5.26-3.9C723.64,195.15,727.24,195.24,730.82,195.48Z" transform="translate(-226.47 -179.08)"/><path class="cls-1" d="M730.66,293.9l-10.53,14.46a60.63,60.63,0,0,1-8.42-.51c2.16-2.17,4.1-4.83,6-7.18.1-.13.22-.3.35-.49l3.26-3.79c.29,0,.59-.08.88-.13A43.52,43.52,0,0,0,730.66,293.9Z" transform="translate(-226.47 -179.08)"/><path d="M728.84,260.58l-.43.48c0-.07,0-.13-.08-.19A2.64,2.64,0,0,1,728.84,260.58Z" transform="translate(-226.47 -179.08)"/><path d="M725.22,257.28l.43-.44a2.89,2.89,0,0,0-.34.49Z" transform="translate(-226.47 -179.08)"/><path d="M725.48,181.73,723.92,183l-1.37,0C724,182,725.06,181.44,725.48,181.73Z" transform="translate(-226.47 -179.08)"/><path d="M725.11,214.18v.07c-.48.74-1,1.55-1.58,2.36l-.9,1.08c-3.06.3-9.55,1.07-14.1,2.06a1.66,1.66,0,0,1-1,1.29,17.8,17.8,0,0,0,1.21-2l-1.41,2.12-.26.07c-1.16.24-2.31.49-3.47.77,0,0,0,0,0,0,1,2.22-2.35,3.93-3.37,1.71-.15-.3-.25-.54-.35-.77a74.67,74.67,0,0,0-8.74,3c.82-1.68,1.63-3.34,2.43-5q2.94-1.06,6-1.91a2.09,2.09,0,0,1,1.39-1.18,83.84,83.84,0,0,1,9.11-2.46A73.14,73.14,0,0,1,725.11,214.18Z" transform="translate(-226.47 -179.08)"/><path d="M725.11,214.25c-.46.78-.47,1.2-.91,1.57l-.67.79C724.08,215.8,724.63,215,725.11,214.25Z" transform="translate(-226.47 -179.08)"/><path d="M723.53,216.61c-.23.35-.47.7-.72,1.06l-.18,0Z" transform="translate(-226.47 -179.08)"/><path d="M723.06,294.4l-1.72,2-.87.13C721.61,294.83,722.68,293.51,723.06,294.4Z" transform="translate(-226.47 -179.08)"/><path d="M722.61,230.76h.1c-1,1.42-2.05,2.78-3.09,4a3.4,3.4,0,0,0-.46.07Z" transform="translate(-226.47 -179.08)"/><path class="cls-1" d="M722.63,217.69,709,233.9a64.85,64.85,0,0,0-14,5.7l2.43-3.66c1.08-1.43,2.11-2.85,3.07-4.27,1.32-2,5-7.59,7-10.63a1.66,1.66,0,0,0,1-1.29C713.08,218.76,719.57,218,722.63,217.69Z" transform="translate(-226.47 -179.08)"/><path d="M722.61,230.76l-3.45,4.05c-.41.06-.82.15-1.22.25a1.55,1.55,0,0,1-1.4,1.16c-.89.12-1.79.27-2.69.44a1.73,1.73,0,0,1-1.08.19,54.28,54.28,0,0,0-7,1.91,72.82,72.82,0,0,0,5.09-5.33c.61-.15,1.2-.28,1.79-.4A20.1,20.1,0,0,1,722.61,230.76Z" transform="translate(-226.47 -179.08)"/><path d="M720.13,308.36c.64,0,1.29,0,1.93,0-1.19,1.16-2.28,1.88-3.17,1.88h-.1Z" transform="translate(-226.47 -179.08)"/><path d="M720.93,322.22v0L717.09,326a88.1,88.1,0,0,1-10.53-.54l1.06-1.08a9.32,9.32,0,0,0,1.8-2.36v-.07A83.2,83.2,0,0,0,720.93,322.22Z" transform="translate(-226.47 -179.08)"/><path d="M717.09,326l3.84-3.68a30.43,30.43,0,0,1-3.2,3.67A4.56,4.56,0,0,1,717.09,326Z" transform="translate(-226.47 -179.08)"/><path d="M719,347.65l1.35,0a21.57,21.57,0,0,1-4,2.78Z" transform="translate(-226.47 -179.08)"/><path d="M720.13,308.36l-1.34,1.84h.1l0,1.74a70.93,70.93,0,0,1-30.17-7.1,31.06,31.06,0,0,0,2.67-3.3q2.67,1.36,5.45,2.46l-1.65,1.86c.55-.55,1.13-1.17,1.73-1.83a59.16,59.16,0,0,0,6.71,2.21l-.7.92.79-.89a61.28,61.28,0,0,0,7.83,1.56l-.89,1c.37-.32.72-.67,1.07-1A60.63,60.63,0,0,0,720.13,308.36Z" transform="translate(-226.47 -179.08)"/><path d="M719.28,256.19c.27-.24.55-.46.83-.68a1.92,1.92,0,0,1-.23.64C719.68,256.15,719.48,256.17,719.28,256.19Z" transform="translate(-226.47 -179.08)"/><path d="M720.07,195.18l-5.26,3.9-.58,0a27.93,27.93,0,0,1,3.58-3.89C718.56,195.2,719.31,195.18,720.07,195.18Z" transform="translate(-226.47 -179.08)"/><path class="cls-1" d="M717.09,326l-6,5.75c-5.87,4.67-12.2,9.24-15.36,14.26-2.27-.4-4.53-.86-6.77-1.4a44.22,44.22,0,0,0,6.68-7.95l10.92-11.2A88.1,88.1,0,0,0,717.09,326Z" transform="translate(-226.47 -179.08)"/><path d="M717.81,195.22a27.93,27.93,0,0,0-3.58,3.89c-3.66.18-7.27.5-10.82.93l0-.32a39.81,39.81,0,0,0,4.36-3.54l.54-.44C711.41,195.47,714.6,195.29,717.81,195.22Z" transform="translate(-226.47 -179.08)"/><path d="M714,294.66l-1.88,2.12-.7-.06A11.33,11.33,0,0,1,714,294.66Z" transform="translate(-226.47 -179.08)"/><path d="M713.42,179.62l.14,1.79a26.42,26.42,0,0,0-2.73,2.27c-5,.44-10,1.08-14.86,1.88-1.55.25-3.1.52-4.63.8a1.86,1.86,0,0,1-2.2-1.63c-1,.21-2,.43-3,.68,2-2,3.44-3.66,3.1-3.86l-.14-.69c.78-.16,1.56-.3,2.34-.43a1.89,1.89,0,0,1,2.22,1.67C700.15,181,706.77,180.13,713.42,179.62Z" transform="translate(-226.47 -179.08)"/><path d="M713.56,181.41l-2.41,2.25-.32,0A26.42,26.42,0,0,1,713.56,181.41Z" transform="translate(-226.47 -179.08)"/><path class="cls-1" d="M711.15,183.66c3.79-.33,7.6-.54,11.4-.63-3.65,2.67-9.78,8.6-14.34,12.72-3.32.28-6.58.67-9.76,1.15,3.15-3.15,6.21-6.78,9.12-9.9Z" transform="translate(-226.47 -179.08)"/><path d="M711.53,307.83l.18,0c-.35.35-.7.7-1.07,1Z" transform="translate(-226.47 -179.08)"/><path d="M710.75,278.89h0c-.87.88-1.72,1.77-2.56,2.66Z" transform="translate(-226.47 -179.08)"/><path d="M710.75,278.89l-2.54,2.66-.14.39a18.82,18.82,0,0,1-5.52-3.16l2-1.83.74-.68a12.47,12.47,0,0,0,5.44,2.61Z" transform="translate(-226.47 -179.08)"/><path d="M709,233.9c.61-.17,1.21-.33,1.81-.47a72.82,72.82,0,0,1-5.09,5.33l-1.12.39Z" transform="translate(-226.47 -179.08)"/><path d="M709.43,321.9V322a16.25,16.25,0,0,0-4.85,3.21h0q-4.32-.58-8.54-1.59l1-1.14a6.44,6.44,0,0,0,1-2.46A82.86,82.86,0,0,0,709.43,321.9Z" transform="translate(-226.47 -179.08)"/><path d="M709,233.9l-4.4,5.25A48.19,48.19,0,0,0,689.55,248l-.08.07,5.61-8.44A64.85,64.85,0,0,1,709,233.9Z" transform="translate(-226.47 -179.08)"/><path d="M707.36,221.12l1.41-2.12a17.8,17.8,0,0,1-1.21,2A.7.7,0,0,1,707.36,221.12Z" transform="translate(-226.47 -179.08)"/><path class="cls-1" d="M711.4,296.72a96.31,96.31,0,0,0-7.79,9.52A59.16,59.16,0,0,1,696.9,304c1.9-2.06,4-4.55,5.85-6.72l1.68-1.9A36.92,36.92,0,0,0,711.4,296.72Z" transform="translate(-226.47 -179.08)"/><path d="M708.27,195.74l-.54.44.48-.43Z" transform="translate(-226.47 -179.08)"/><path d="M708.21,195.75l-.48.43-4.36,3.54,0,.32c-3.58.44-7.1,1-10.49,1.65a43.37,43.37,0,0,0,5.53-4.79C701.63,196.42,704.89,196,708.21,195.75Z" transform="translate(-226.47 -179.08)"/><path d="M709.42,322a9.32,9.32,0,0,1-1.8,2.36l-1.06,1.08-2-.23A16.25,16.25,0,0,1,709.42,322Z" transform="translate(-226.47 -179.08)"/><path d="M703.37,199.72l4.36-3.54A39.81,39.81,0,0,1,703.37,199.72Z" transform="translate(-226.47 -179.08)"/><path d="M706.52,292.13l-.28,1.24c-.53.55-1.16,1.24-1.85,2a41.81,41.81,0,0,1-6.61-2.52,12.45,12.45,0,0,1,.58-1.42l.18-.22a1,1,0,0,0-.18.22c-.34.4-.66.81-1,1.23-.56-.27-1.12-.56-1.68-.86-1.1-.59-2.24-1.22-3.39-1.9a3,3,0,0,0,.64-1.5c-.26.45-.54.91-.85,1.38a62.35,62.35,0,0,1-6.15-4.08l2.26-2.76A44.44,44.44,0,0,0,706.52,292.13Z" transform="translate(-226.47 -179.08)"/><path d="M706.24,293.37l-1.81,2h0C705.08,294.61,705.71,293.92,706.24,293.37Z" transform="translate(-226.47 -179.08)"/><path d="M704.89,347.19c.58.06,1.15.11,1.73.14a33.8,33.8,0,0,1-4.7,2.6Z" transform="translate(-226.47 -179.08)"/><path d="M705.25,276.27l-.74.68.72-.69Z" transform="translate(-226.47 -179.08)"/><path d="M705.23,276.26l-.72.69-2,1.83a17.51,17.51,0,0,1-3.1-3.28,35.4,35.4,0,0,0,3-2.33A14.11,14.11,0,0,0,705.23,276.26Z" transform="translate(-226.47 -179.08)"/><path d="M704.89,347.19l-3,2.74-.16,1.38a102.56,102.56,0,0,1-16.48-3.12l.37-1.33a16.13,16.13,0,0,0,3.31-2.3c2.24.54,4.5,1,6.77,1.4-.23.36-.44.71-.63,1.07l1-1Q700.49,346.78,704.89,347.19Z" transform="translate(-226.47 -179.08)"/><path d="M703.61,306.24l.09,0-.79.89Z" transform="translate(-226.47 -179.08)"/><path d="M702.19,272.76c.09.14.17.28.26.41a35.4,35.4,0,0,1-3,2.33l-.09-.12Z" transform="translate(-226.47 -179.08)"/><path d="M702.19,272.76l-2.83,2.62a16.24,16.24,0,0,1-1.76-3.12l.32-.36,2.7-2.83A13.82,13.82,0,0,0,702.19,272.76Z" transform="translate(-226.47 -179.08)"/><path d="M700.58,268.93c0,.05,0,.1,0,.14l-2.7,2.83C698.64,271.13,699.56,270.09,700.58,268.93Z" transform="translate(-226.47 -179.08)"/><path d="M698.54,291.24l-.18.22A1,1,0,0,1,698.54,291.24Z" transform="translate(-226.47 -179.08)"/><path d="M697.92,271.9l-.32.36h0Z" transform="translate(-226.47 -179.08)"/><path d="M697.71,319.92l.29.07a6.44,6.44,0,0,1-1,2.46l-1,1.14-1.37-.34A35.94,35.94,0,0,1,697.71,319.92Z" transform="translate(-226.47 -179.08)"/><path d="M698.36,291.46a12.45,12.45,0,0,0-.58,1.42l-.39-.19C697.7,292.27,698,291.86,698.36,291.46Z" transform="translate(-226.47 -179.08)"/><path d="M696.68,197.17c.59-.09,1.17-.19,1.77-.27a43.37,43.37,0,0,1-5.53,4.79l-1.38.27Z" transform="translate(-226.47 -179.08)"/><path d="M696.82,304l.08,0c-.6.66-1.18,1.28-1.73,1.83Z" transform="translate(-226.47 -179.08)"/><path d="M696.68,197.17,691.54,202c-1,.2-2,.41-2.95.63a2,2,0,0,1-1.23,1.2A87.52,87.52,0,0,0,675,208.92c3.09-2.7,6.62-6,9.92-9.36C688.65,198.63,692.59,197.83,696.68,197.17Z" transform="translate(-226.47 -179.08)"/><path d="M696.14,346l-1,1c.19-.36.4-.71.63-1.07Z" transform="translate(-226.47 -179.08)"/><path class="cls-1" d="M696,185.56l0,.11-16.36,17.07A76.94,76.94,0,0,0,665,211l20.63-25.07.5-.51c1-.25,2-.47,3-.68a1.86,1.86,0,0,0,2.2,1.63C692.87,186.08,694.42,185.81,696,185.56Z" transform="translate(-226.47 -179.08)"/><path d="M695.08,239.6,689.47,248l-.34.31a49.7,49.7,0,0,1,5.34-8.41h0Z" transform="translate(-226.47 -179.08)"/><path d="M697.71,319.92a35.94,35.94,0,0,0-3.06,3.33,78.09,78.09,0,0,1-8.12-2.56c1.12-1.81,1.7-3.19,1.37-3.75l0-.09A76.89,76.89,0,0,0,697.71,319.92Z" transform="translate(-226.47 -179.08)"/><path d="M694.47,239.94a49.7,49.7,0,0,0-5.34,8.41c-5.19,4.65-10.75,11.6-10.59,18.8L675.4,271a21.52,21.52,0,0,1,2.3-15.47C681.18,249.21,687.46,243.89,694.47,239.94Z" transform="translate(-226.47 -179.08)"/><path d="M693.35,221.11l.25-.1c-.8,1.61-1.61,3.27-2.43,5l-1.28.55,2.62-4.4A8.16,8.16,0,0,0,693.35,221.11Z" transform="translate(-226.47 -179.08)"/><path class="cls-1" d="M694.65,323.25c-2.65,3.2-5,6.81-7.45,10.3l-7.43,8.38q-4.26-1.46-8.29-3.3c3.1-2.69,11.63-12.37,15-17.94A78.09,78.09,0,0,0,694.65,323.25Z" transform="translate(-226.47 -179.08)"/><path d="M693.35,221.11a8.16,8.16,0,0,1-.84,1l-2.62,4.4a55.7,55.7,0,0,0-10.09,5.74c1.25-1.93,2.51-3.85,3.8-5.76a.42.42,0,0,0-.26.07l-.36-.63A66.51,66.51,0,0,1,693.35,221.11Z" transform="translate(-226.47 -179.08)"/><path d="M692.11,289.81c.31-.47.59-.93.85-1.38a3,3,0,0,1-.64,1.5Z" transform="translate(-226.47 -179.08)"/><path d="M691.18,301.44l.19.1a31.06,31.06,0,0,1-2.67,3.3.34.34,0,0,1-.12-.06Z" transform="translate(-226.47 -179.08)"/><path d="M691.18,301.44l-2.6,3.34a57.15,57.15,0,0,1-5.36-3l2.65-3.42C687.59,299.49,689.37,300.51,691.18,301.44Z" transform="translate(-226.47 -179.08)"/><path class="cls-1" d="M689.89,226.51,664.1,269.89a35.5,35.5,0,0,1-.21-11.41h0c.32-.52.62-1,.92-1.55l3.24-5.48c3.82-6.45,7.68-12.86,11.75-19.19A55.7,55.7,0,0,1,689.89,226.51Z" transform="translate(-226.47 -179.08)"/><path d="M689.25,181.55c.34.2-1.13,1.85-3.1,3.86l-.1,0Z" transform="translate(-226.47 -179.08)"/><path d="M689.11,180.86l.14.69-3.2,3.88a83.78,83.78,0,0,0-13.35,4.5l1.74-1.87c-.86.71-1.71,1.45-2.55,2.23a82,82,0,0,0-44.34,48.29l-1.18,1.27-2.7-.9.09-.28C634.24,208.13,657.54,187,689.11,180.86Z" transform="translate(-226.47 -179.08)"/><path d="M688.1,344.35c.29.08.57.15.86.21a16.13,16.13,0,0,1-3.31,2.3Z" transform="translate(-226.47 -179.08)"/><path class="cls-1" d="M692.11,289.81c-1.78,2.79-4.19,5.9-6.26,8.56a61.9,61.9,0,0,1-6.39-4.72l6.5-7.92A62.35,62.35,0,0,0,692.11,289.81Z" transform="translate(-226.47 -179.08)"/><path d="M688.22,283,686,285.73l-.59-.44c.75-1,1.52-1.89,2.3-2.79C687.85,282.67,688,282.82,688.22,283Z" transform="translate(-226.47 -179.08)"/><path d="M688.1,344.35l-2.45,2.51-.37,1.33a96.11,96.11,0,0,1-24-10.24l.71-1.2,1.79-2.12c2.38,1.39,4.85,2.68,7.38,3.84l-.68.87a3.33,3.33,0,0,0,1-.71q4,1.85,8.29,3.3l-1.76,2q1.11-.89,2.13-1.86c1.46.5,3,1,4.45,1.38C685.75,343.76,686.92,344.07,688.1,344.35Z" transform="translate(-226.47 -179.08)"/><path d="M687.9,316.94c.33.56-.25,1.94-1.37,3.75l-1.19-.46Z" transform="translate(-226.47 -179.08)"/><path d="M687.94,316.85l0,.09-2.56,3.29a72.38,72.38,0,0,1-6.83-3.12l2.72-3.23A68,68,0,0,0,687.94,316.85Z" transform="translate(-226.47 -179.08)"/><path d="M685.87,298.38l-2.65,3.42h0c.73-1,1.65-2.14,2.65-3.42Z" transform="translate(-226.47 -179.08)"/><path d="M687.67,282.5c-.78.9-1.55,1.83-2.3,2.79a34.47,34.47,0,0,1-5.43-5.22c.79-1.13,1.58-2.27,2.36-3.41A34.76,34.76,0,0,0,687.67,282.5Z" transform="translate(-226.47 -179.08)"/><path d="M683.54,199.9l1.38-.34c-3.3,3.34-6.83,6.66-9.92,9.36-.91.46-1.81,1-2.69,1.45l7.32-7.63c.82-.36,1.66-.71,2.5-1A1.81,1.81,0,0,1,683.54,199.9Z" transform="translate(-226.47 -179.08)"/><path d="M683.34,226.56a.42.42,0,0,1,.26-.07c-1.29,1.91-2.55,3.83-3.8,5.76l-.78.59,3.3-5.59A4.18,4.18,0,0,0,683.34,226.56Z" transform="translate(-226.47 -179.08)"/><path d="M685.85,298.37c-1,1.28-1.92,2.45-2.65,3.42a55.46,55.46,0,0,1-6.53-4.74l.13-.15,2.66-3.25A61.9,61.9,0,0,0,685.85,298.37Z" transform="translate(-226.47 -179.08)"/><path d="M683,225.93l.36.63a4.18,4.18,0,0,1-1,.69l-3.3,5.59A38.48,38.48,0,0,0,669.6,243a39.63,39.63,0,0,0-5.71,15.48h0c-1.35,2.31-2.71,4.63-4.09,6.94a38.7,38.7,0,0,1,7.77-26.15A52.1,52.1,0,0,1,683,225.93Z" transform="translate(-226.47 -179.08)"/><path d="M682.21,276.54a.47.47,0,0,0,.09.12c-.78,1.14-1.57,2.28-2.36,3.41l-.15-.17Z" transform="translate(-226.47 -179.08)"/><path d="M682.21,276.54l-2.42,3.36a21.61,21.61,0,0,1-3.87-7c-.14-.45-.27-.89-.38-1.33,1-1.37,2.05-2.72,3-4a13.43,13.43,0,0,0,1.61,5.7A28.65,28.65,0,0,0,682.21,276.54Z" transform="translate(-226.47 -179.08)"/><path d="M681.23,313.88l-2.72,3.23-.32-.16c1.13-1.29,2.1-2.39,2.83-3.17A1,1,0,0,0,681.23,313.88Z" transform="translate(-226.47 -179.08)"/><path d="M679.77,341.93c.12,0,.24.09.37.12q-1,1-2.13,1.86Z" transform="translate(-226.47 -179.08)"/><path class="cls-1" d="M679.79,279.9l-6,8.35c-.85-.92-1.67-1.86-2.47-2.83a33.32,33.32,0,0,1-3.16-4.54c2.37-2.76,5-6.06,7.39-9.28.11.44.24.88.38,1.33A21.61,21.61,0,0,0,679.79,279.9Z" transform="translate(-226.47 -179.08)"/><path d="M679.63,202.74l-7.32,7.63a56.62,56.62,0,0,0-7.92,5.43,54.26,54.26,0,0,0-19.55,35.47L640.42,256c0-1.29.13-2.58.26-3.88a56.38,56.38,0,0,1,4.37-16.85L665,211A76.94,76.94,0,0,1,679.63,202.74Z" transform="translate(-226.47 -179.08)"/><path d="M679.46,293.65l-2.66,3.25c.86-1.09,1.7-2.22,2.53-3.37A.49.49,0,0,0,679.46,293.65Z" transform="translate(-226.47 -179.08)"/><path d="M678.54,267.15c0,.14,0,.29,0,.43-1,1.3-2,2.65-3,4,0-.19-.1-.38-.14-.57Z" transform="translate(-226.47 -179.08)"/><path d="M681,313.78c-.73.78-1.7,1.88-2.83,3.17a66,66,0,0,1-5.77-3.4l1.94-2.3.8-.77C677.06,311.68,679,312.78,681,313.78Z" transform="translate(-226.47 -179.08)"/><path d="M679.33,293.53c-.83,1.15-1.67,2.28-2.53,3.37l-.13.15a50.38,50.38,0,0,1-4.9-4.68q1.1-1.89,2.33-3.78A62.32,62.32,0,0,0,679.33,293.53Z" transform="translate(-226.47 -179.08)"/><path d="M675.16,310.48l-.8.77.7-.83A.27.27,0,0,0,675.16,310.48Z" transform="translate(-226.47 -179.08)"/><path d="M675.06,310.42l-.7.83-2.22,2.12c-.62-.4-1.23-.82-1.84-1.25-1.91-1.35-3.77-2.81-5.55-4.35l1.59-1.63a12.59,12.59,0,0,0-1.65,1.58,71.93,71.93,0,0,1-7.37-7.34c.7-1,1.28-1.84,1.7-2.51l.64-.56A68.79,68.79,0,0,0,675.06,310.42Z" transform="translate(-226.47 -179.08)"/><path d="M674.44,188.06l-1.74,1.87-.81.36C672.73,189.51,673.58,188.77,674.44,188.06Z" transform="translate(-226.47 -179.08)"/><path d="M672.14,313.37l2.22-2.12-1.94,2.3A2.2,2.2,0,0,1,672.14,313.37Z" transform="translate(-226.47 -179.08)"/><path d="M673.78,288.25l.32.34q-1.23,1.89-2.33,3.78l-.47-.51a1.24,1.24,0,0,0,0-.23Z" transform="translate(-226.47 -179.08)"/><path d="M673.78,288.25l-2.44,3.38a1.24,1.24,0,0,1,0,.23,47.8,47.8,0,0,1-5.83-8c.85-.88,1.75-1.88,2.68-3a33.32,33.32,0,0,0,3.16,4.54C672.11,286.39,672.93,287.33,673.78,288.25Z" transform="translate(-226.47 -179.08)"/><path class="cls-1" d="M672.42,313.55a66,66,0,0,0,5.77,3.4c-4.43,5.11-11.22,13.3-14.57,17.6a84,84,0,0,1-7.33-4.8C660.12,327.88,667.22,319.69,672.42,313.55Z" transform="translate(-226.47 -179.08)"/><path d="M671.14,338.47l.34.16a3.33,3.33,0,0,1-1,.71Z" transform="translate(-226.47 -179.08)"/><path d="M667.85,280.37l.3.51c-.93,1.08-1.83,2.08-2.68,3a2.48,2.48,0,0,1-.18-.31Z" transform="translate(-226.47 -179.08)"/><path d="M667.85,280.37l-2.56,3.16c-.47-.8-.91-1.62-1.32-2.45a40.92,40.92,0,0,1-2.3-5.68c1-1.06,2-2.17,2.9-3.31A33.63,33.63,0,0,0,667.85,280.37Z" transform="translate(-226.47 -179.08)"/><path class="cls-1" d="M671.89,190.29a115.23,115.23,0,0,0-13.51,15.07l-30.83,33.22A82,82,0,0,1,671.89,190.29Z" transform="translate(-226.47 -179.08)"/><path d="M666.34,306.14l-1.59,1.63-.06,0A12.59,12.59,0,0,1,666.34,306.14Z" transform="translate(-226.47 -179.08)"/><path d="M665,211l-20,24.27c.21-.48.42-.95.64-1.41q2.07-2.62,4-5.32c3.07-4.29,6.18-8.53,9.37-12.69A66.39,66.39,0,0,1,665,211Z" transform="translate(-226.47 -179.08)"/><path d="M664.1,269.89c.13.74.28,1.47.47,2.2-.94,1.14-1.9,2.25-2.9,3.31-.1-.31-.2-.62-.29-.94Z" transform="translate(-226.47 -179.08)"/><path d="M664.1,269.89l-2.72,4.57a40.33,40.33,0,0,1-1.58-9s0,0,0,0c1.38-2.31,2.74-4.63,4.09-6.94A35.5,35.5,0,0,0,664.1,269.89Z" transform="translate(-226.47 -179.08)"/><path d="M663.76,334.63,662,336.75c.34-.49.91-1.25,1.65-2.2Z" transform="translate(-226.47 -179.08)"/><path d="M663.62,334.55c-.74.95-1.31,1.71-1.65,2.2l-.71,1.2a93.51,93.51,0,0,1-15.84-12,82.65,82.65,0,0,1-19-26.63l2.78-3.34q1.35,3.19,3,6.24c-.39.57-.78,1.14-1.15,1.71l1.26-1.51a79.58,79.58,0,0,0,4.37,7.19l-.68.81c.29-.17.58-.36.86-.56a77.06,77.06,0,0,0,5.29,6.84l-1.27,1.42a17.78,17.78,0,0,0,1.54-1.09,81.45,81.45,0,0,0,6.69,6.84l-1.24,1.27c.31-.27.74-.69,1.28-1.23q3,2.78,6.37,5.25l-1,.93a2.59,2.59,0,0,0,1.73-.37A84,84,0,0,0,663.62,334.55Z" transform="translate(-226.47 -179.08)"/><path class="cls-1" d="M664.69,307.72c-1.32,1.36-3.31,3.47-5.48,5.76L649.12,323.9a81.45,81.45,0,0,1-6.69-6.84c5-3.83,11.42-11.8,14.89-16.68A71.93,71.93,0,0,0,664.69,307.72Z" transform="translate(-226.47 -179.08)"/><path d="M652.08,291.44l-.83,1a70.28,70.28,0,0,1-4.34-7.58l.69-.83c.67-.76,1.33-1.52,2-2.29.66,1.46,1.39,2.91,2.18,4.33a65.51,65.51,0,0,0,7.91,11.26l-.64.56-2,2.21a73.54,73.54,0,0,1-5.76-7.62Zm.18-.22.62-.74s0,0,0,0A8.88,8.88,0,0,0,652.26,291.22Z" transform="translate(-226.47 -179.08)"/><path d="M657,300.08l2-2.21c-.42.67-1,1.53-1.7,2.51Z" transform="translate(-226.47 -179.08)"/><path d="M655.53,329.19c.25.2.5.38.76.56a2.59,2.59,0,0,1-1.73.37Z" transform="translate(-226.47 -179.08)"/><path d="M645.69,233.85a57.81,57.81,0,0,1,13.39-18c-3.19,4.16-6.3,8.4-9.37,12.69Q647.76,231.23,645.69,233.85Z" transform="translate(-226.47 -179.08)"/><path d="M652.89,290.45s0,0,0,0l-.62.74A8.88,8.88,0,0,1,652.89,290.45Z" transform="translate(-226.47 -179.08)"/><path d="M651.25,292.42l.83-1-.8,1Z" transform="translate(-226.47 -179.08)"/><path class="cls-1" d="M651.25,292.42l-14.56,17.22a79.58,79.58,0,0,1-4.37-7.19l14.59-17.61A70.28,70.28,0,0,0,651.25,292.42Z" transform="translate(-226.47 -179.08)"/><path d="M649.55,281.66a.14.14,0,0,0,0,.06c-.64.77-1.3,1.53-2,2.29Z" transform="translate(-226.47 -179.08)"/><path d="M649.55,281.66,647.6,284c-.23.27-.47.53-.71.8a68.44,68.44,0,0,1-2.81-6.6l2.78-3.33a.83.83,0,0,1,.08-.12A53,53,0,0,0,649.55,281.66Z" transform="translate(-226.47 -179.08)"/><path d="M649.12,323.9a.08.08,0,0,0,0,0c-.54.54-1,1-1.28,1.23Z" transform="translate(-226.47 -179.08)"/><path d="M647.6,284l-.69.83,0,0C647.13,284.54,647.37,284.28,647.6,284Z" transform="translate(-226.47 -179.08)"/><path d="M646.94,274.76a.83.83,0,0,0-.08.12l-2.78,3.33-.14-.39q1.56-1.71,2.9-3.36C646.87,274.56,646.9,274.66,646.94,274.76Z" transform="translate(-226.47 -179.08)"/><path d="M645,265.91a56.82,56.82,0,0,0,1.88,8.55q-1.33,1.65-2.9,3.36a59.66,59.66,0,0,1-2.34-8.39Z" transform="translate(-226.47 -179.08)"/><path class="cls-1" d="M623.15,261.88l21.9-26.62a56.38,56.38,0,0,0-4.37,16.85c-.13,1.3-.22,2.59-.26,3.88L624.49,273l-1,1a78,78,0,0,1-.41-11.38C623.12,262.42,623.13,262.15,623.15,261.88Z" transform="translate(-226.47 -179.08)"/><path d="M644.92,265.61c0,.1,0,.2,0,.3l-3.36,3.52a2.7,2.7,0,0,1-.08-.39C642.68,267.92,643.82,266.78,644.92,265.61Z" transform="translate(-226.47 -179.08)"/><path d="M644.84,251.27c0,.18-.05.35-.07.53-1.38,1.73-2.85,3.41-4.37,5.07,0-.29,0-.59,0-.88Z" transform="translate(-226.47 -179.08)"/><path d="M644.77,251.8a55.06,55.06,0,0,0,.15,13.81c-1.1,1.17-2.24,2.31-3.4,3.43a57.44,57.44,0,0,1-1.12-12.17C641.92,255.21,643.39,253.53,644.77,251.8Z" transform="translate(-226.47 -179.08)"/><path d="M642.16,316.73a3.92,3.92,0,0,0,.27.33,17.78,17.78,0,0,1-1.54,1.09Z" transform="translate(-226.47 -179.08)"/><path class="cls-1" d="M641.6,269.43a59.66,59.66,0,0,0,2.34,8.39c-5,5.46-11.17,11.22-15.18,17.08a75.34,75.34,0,0,1-3-8.92Z" transform="translate(-226.47 -179.08)"/><path d="M636.69,309.64l.18.25c-.28.2-.57.39-.86.56Z" transform="translate(-226.47 -179.08)"/><path d="M632.21,302.25a2,2,0,0,0,.11.2L631.06,304C631.43,303.39,631.82,302.82,632.21,302.25Z" transform="translate(-226.47 -179.08)"/><path d="M629.23,296l-2.78,3.34a1.59,1.59,0,0,1-.12-.27h0a32.13,32.13,0,0,1,2.43-4.17C628.91,295.27,629.06,295.64,629.23,296Z" transform="translate(-226.47 -179.08)"/><path d="M627.55,238.58c-.09.27-.19.55-.28.83-.3.16-.6.3-.9.44Z" transform="translate(-226.47 -179.08)"/><path d="M623.52,274.08a75.92,75.92,0,0,0,2.14,11.55c-.34.48-.67,1-1,1.48l1.08-1.13a75.34,75.34,0,0,0,3,8.92,32.13,32.13,0,0,0-2.43,4.17A82.7,82.7,0,0,1,623.67,239l2.7.9c.3-.14.6-.28.9-.44a83.17,83.17,0,0,0-4.12,22.37l-.66.9.66-.8c0,.27,0,.54,0,.81a78,78,0,0,0,.41,11.38S623.52,274.08,623.52,274.08Z" transform="translate(-226.47 -179.08)"/><path d="M625.76,286l-1.08,1.13c.31-.5.64-1,1-1.48C625.69,285.75,625.72,285.86,625.76,286Z" transform="translate(-226.47 -179.08)"/><path d="M623.15,261.78a.34.34,0,0,0,0,.1l-.66.8Z" transform="translate(-226.47 -179.08)"/><path class="cls-2" d="M697.59,272.25l-.36.38.37-.37" transform="translate(-226.47 -179.08)"/><path class="cls-2" d="M700.62,269.07l10.7-11.21c-.59-.65-6.52,6.28-10.74,11.07" transform="translate(-226.47 -179.08)"/><path class="cls-2" d="M702.45,273.17a82.92,82.92,0,0,0,7.46-7.53l-7.72,7.12" transform="translate(-226.47 -179.08)"/><path class="cls-2" d="M699.36,275.38l-.7.64.79-.52" transform="translate(-226.47 -179.08)"/><path class="cls-2" d="M719.28,256.19a92.92,92.92,0,0,0-9.37,9.45l9.26-8.53a3.33,3.33,0,0,0,.71-1" transform="translate(-226.47 -179.08)"/><path class="cls-2" d="M725.22,257.28c-1.41,1.45-2.85,2.89-4.3,4.31l4-3.72a1.72,1.72,0,0,0,.42-.54" transform="translate(-226.47 -179.08)"/><path class="cls-2" d="M705.25,276.27c5.22-4.83,10.56-9.68,15.67-14.68l-15.69,14.67" transform="translate(-226.47 -179.08)"/><path class="cls-2" d="M702.18,279.12l.37-.34" transform="translate(-226.47 -179.08)"/><path class="cls-2" d="M710.77,278.89c5.76-5.88,12-11.55,17.64-17.83" transform="translate(-226.47 -179.08)"/><path class="cls-2" d="M728.33,260.87a4.6,4.6,0,0,1-1.21.84l-16.37,17.18" transform="translate(-226.47 -179.08)"/><path class="cls-2" d="M659.8,265.42l-1.39,2.35,1.39-2.34" transform="translate(-226.47 -179.08)"/><path class="cls-2" d="M663.89,258.47c.32-.52.62-1,.92-1.55" transform="translate(-226.47 -179.08)"/><path class="cls-2" d="M679,232.84l-11,18.6c3.82-6.45,7.68-12.86,11.75-19.19" transform="translate(-226.47 -179.08)"/><path class="cls-2" d="M664.81,256.92l3.24-5.48Q666.4,254.17,664.81,256.92Z" transform="translate(-226.47 -179.08)"/><path class="cls-2" d="M693.6,221l.24-.47a4.12,4.12,0,0,0-.49.57" transform="translate(-226.47 -179.08)"/><path class="cls-2" d="M664.57,272.09a124.89,124.89,0,0,0,11.8-17.3c5.48-9.44,10.26-19.54,14.8-28.83" transform="translate(-226.47 -179.08)"/><path class="cls-2" d="M661.38,274.46l-1.94,3.26c.76-.75,1.51-1.52,2.23-2.32" transform="translate(-226.47 -179.08)"/><line class="cls-2" x1="463.42" y1="47.43" x2="437.63" y2="90.81"/><line class="cls-2" x1="448.93" y1="91.95" x2="441.38" y2="101.29"/><path class="cls-2" d="M678.55,267.58c1.33-1.8,2.57-3.48,3.63-4.93l-3.64,4.5" transform="translate(-226.47 -179.08)"/><path class="cls-2" d="M668.15,280.88c2.37-2.76,5-6.06,7.39-9.28" transform="translate(-226.47 -179.08)"/><path class="cls-2" d="M665.29,283.53l-1.83,2.26c.63-.55,1.3-1.21,2-2" transform="translate(-226.47 -179.08)"/><path class="cls-2" d="M707.36,221.12l-9.85,14.82c1.08-1.43,2.11-2.85,3.07-4.27,1.32-2,5-7.59,7-10.63" transform="translate(-226.47 -179.08)"/><path class="cls-2" d="M695.08,239.6l2.43-3.66c-1,1.31-2,2.64-3,4" transform="translate(-226.47 -179.08)"/><path class="cls-2" d="M689.13,248.35c-.12.23-.22.46-.33.7l.67-1" transform="translate(-226.47 -179.08)"/><line class="cls-2" x1="453.32" y1="100.82" x2="447.31" y2="109.17"/><path class="cls-2" d="M682.3,276.66c.72-1.05,1.42-2.11,2.11-3.17l-2.2,3.05" transform="translate(-226.47 -179.08)"/><path class="cls-2" d="M674.1,288.59c1.84-2.85,3.85-5.68,5.84-8.52" transform="translate(-226.47 -179.08)"/><path class="cls-2" d="M671.3,291.86c-.1.5-.33,1.26.41.61l.06-.1" transform="translate(-226.47 -179.08)"/><path class="cls-2" d="M710.85,233.43a169.34,169.34,0,0,0,12-15.76" transform="translate(-226.47 -179.08)"/><path class="cls-2" d="M704.64,239.15l-1.78,2.13c.95-.75,1.92-1.59,2.9-2.52" transform="translate(-226.47 -179.08)"/><line class="cls-2" x1="496.16" y1="38.61" x2="482.57" y2="54.82"/><path class="cls-2" d="M722.71,230.76l.54-.75-.64.75" transform="translate(-226.47 -179.08)"/><path class="cls-2" d="M719.16,234.81l-2,2.41a21.62,21.62,0,0,0,2.51-2.48" transform="translate(-226.47 -179.08)"/><path class="cls-2" d="M723.25,230l9.85-11.58C729.88,220,726.63,225.24,723.25,230Z" transform="translate(-226.47 -179.08)"/><line class="cls-2" x1="516" y1="40.51" x2="504.97" y2="53.57"/><path class="cls-2" d="M732.73,233.2a81.91,81.91,0,0,0,9.94-13.56" transform="translate(-226.47 -179.08)"/><path class="cls-2" d="M728.85,235.72l-.13.15a1.33,1.33,0,0,0,.43-.05" transform="translate(-226.47 -179.08)"/><line class="cls-2" x1="452.99" y1="114.57" x2="459.49" y2="106.65"/><path class="cls-2" d="M685.37,285.29c-2.08,2.66-4,5.5-6,8.24" transform="translate(-226.47 -179.08)"/><path class="cls-2" d="M688.22,283l.14-.17c0-.42.46-.8.51-1.62l-1.2,1.32" transform="translate(-226.47 -179.08)"/><path class="cls-2" d="M685.87,298.38l6.14-8c.1-.18.21-.34.31-.49" transform="translate(-226.47 -179.08)"/><path class="cls-2" d="M683.2,301.79c-.22.29-.42.57-.6.82l.62-.81" transform="translate(-226.47 -179.08)"/><path class="cls-2" d="M692.11,289.81c-1.78,2.79-4.19,5.9-6.26,8.56" transform="translate(-226.47 -179.08)"/><path class="cls-2" d="M691.37,301.54c.59-.83,1.15-1.68,1.71-2.53l-1.9,2.43" transform="translate(-226.47 -179.08)"/><path class="cls-2" d="M688.58,304.78l-.81,1c.33-.32.64-.64.93-1" transform="translate(-226.47 -179.08)"/><path class="cls-2" d="M697.39,292.69c-1.56,2-2.91,4.2-4.31,6.32l4.52-5.76a3.14,3.14,0,0,0,.18-.37" transform="translate(-226.47 -179.08)"/><path class="cls-2" d="M696.9,304c1.9-2.06,4-4.55,5.85-6.72L696.82,304" transform="translate(-226.47 -179.08)"/><path class="cls-2" d="M704.39,295.4c-.51.59-1.07,1.23-1.64,1.91l1.68-1.9" transform="translate(-226.47 -179.08)"/><path class="cls-2" d="M711.4,296.72a96.31,96.31,0,0,0-7.79,9.52" transform="translate(-226.47 -179.08)"/><line class="cls-2" x1="477.23" y1="127.19" x2="485.63" y2="117.7"/><path class="cls-2" d="M711.71,307.85c2.16-2.17,4.1-4.83,6-7.18.1-.13.22-.3.35-.49l-6.55,7.65" transform="translate(-226.47 -179.08)"/><path class="cls-2" d="M720.47,296.52c-.85,1.27-1.74,2.76-2.39,3.66l3.26-3.79" transform="translate(-226.47 -179.08)"/><path class="cls-2" d="M722.06,308.32c3.55-3.51,7.87-11,9.54-14.79" transform="translate(-226.47 -179.08)"/><line class="cls-2" x1="504.19" y1="114.82" x2="493.66" y2="129.28"/><path class="cls-2" d="M749.93,222a53.57,53.57,0,0,0-2.92,4.85l3.83-4.5" transform="translate(-226.47 -179.08)"/><path class="cls-2" d="M739.22,237c3.08-1.29,5.43-5.85,7.79-10.14l-8.31,9.77" transform="translate(-226.47 -179.08)"/><path class="cls-2" d="M758.71,226.23l-.38.76.54-.66" transform="translate(-226.47 -179.08)"/><path class="cls-2" d="M746.11,243.12A59.17,59.17,0,0,0,758.33,227l-12.68,15.63" transform="translate(-226.47 -179.08)"/><path class="cls-2" d="M765.05,230.65l-.81,1.08.84-1.06" transform="translate(-226.47 -179.08)"/><path class="cls-2" d="M758.69,239.27l5.55-7.54C762.34,234.19,760.51,236.72,758.69,239.27Z" transform="translate(-226.47 -179.08)"/><path class="cls-2" d="M751.12,249.86c2.57-3.48,5-7.05,7.57-10.59L751,249.69" transform="translate(-226.47 -179.08)"/><path class="cls-2" d="M748.55,253l-2.11,2.87c.74-.9,1.47-1.82,2.18-2.75" transform="translate(-226.47 -179.08)"/><line class="cls-2" x1="545.45" y1="58.32" x2="545.48" y2="58.28"/><path class="cls-2" d="M755.13,259.81a189.37,189.37,0,0,0,16.79-22.41L755,259.12" transform="translate(-226.47 -179.08)"/><path class="cls-2" d="M751.76,263.24l-.91,1.17c.31-.32.63-.64.93-1" transform="translate(-226.47 -179.08)"/><path class="cls-2" d="M732.17,306.9c3.81-1.82,10.83-15.39,14-19.72,8.53-11.41,17.81-22,24.37-34.73.76-1.31,3.76-7.46,4.54-9L751.11,278.9Z" transform="translate(-226.47 -179.08)"/><path class="cls-2" d="M775.06,243.49l.14-.21a.48.48,0,0,0,0-.12A1.74,1.74,0,0,0,775.06,243.49Z" transform="translate(-226.47 -179.08)"/><path class="cls-2" d="M746.58,302.13c5.3-9.42,15.09-16.41,20.78-25.17a136.72,136.72,0,0,0,9.28-17.13c1.23-2.1,3.82-5.71,3.57-6.59a.25.25,0,0,0-.26-.2l-32.49,46.17c-.8,1.36-1.53,1.81-1.54,3.23" transform="translate(-226.47 -179.08)"/><path class="cls-2" d="M627.27,239.41c10.6-5.37,19.37-18.35,26.34-27.53,1.55-2.21,3.14-4.39,4.77-6.52l-30.83,33.22" transform="translate(-226.47 -179.08)"/><path class="cls-2" d="M671.89,190.29a115.23,115.23,0,0,0-13.51,15.07l14.32-15.43" transform="translate(-226.47 -179.08)"/><path class="cls-2" d="M665,211l20.63-25.07c-2.57,2.61-5.79,5.66-7,6.93a255.3,255.3,0,0,0-19.6,23" transform="translate(-226.47 -179.08)"/><line class="cls-2" x1="396.68" y1="82.8" x2="418.58" y2="56.18"/><path class="cls-2" d="M645.69,233.85c-7.36,9.44-15.45,18.25-22.54,27.93" transform="translate(-226.47 -179.08)"/><path class="cls-2" d="M686.05,185.43l-.4.49.5-.51" transform="translate(-226.47 -179.08)"/><path class="cls-2" d="M684.92,199.56c5.26-5.37,9.89-10.8,11.07-13.89l-16.36,17.07" transform="translate(-226.47 -179.08)"/><path class="cls-2" d="M672.31,210.37l-3.16,3.3c1.52-1.09,3.57-2.75,5.85-4.75" transform="translate(-226.47 -179.08)"/><path class="cls-2" d="M698.45,196.9c3.15-3.15,6.21-6.78,9.12-9.9l-10.89,10.17" transform="translate(-226.47 -179.08)"/><path class="cls-2" d="M691.54,202,690,203.43a21.05,21.05,0,0,0,2.95-1.74" transform="translate(-226.47 -179.08)"/><path class="cls-2" d="M710.83,183.68c-1.06,1-2.15,2.12-3.26,3.32l3.58-3.34" transform="translate(-226.47 -179.08)"/><line class="cls-2" x1="481.8" y1="16.66" x2="497.45" y2="3.92"/><path class="cls-2" d="M722.55,183c-3.65,2.67-9.78,8.6-14.34,12.72" transform="translate(-226.47 -179.08)"/><path class="cls-2" d="M734.28,183.19c-4.89,3.14-11.71,7.59-16.47,12" transform="translate(-226.47 -179.08)"/><path class="cls-2" d="M720.07,195.18,735.21,184c.17-.27.33-.5.47-.71" transform="translate(-226.47 -179.08)"/><path class="cls-2" d="M714.23,199.11c-.22.28-.41.56-.59.83l1.17-.86" transform="translate(-226.47 -179.08)"/><path class="cls-2" d="M724.69,201l1.87-1.69C725.77,200,725.13,200.6,724.69,201Z" transform="translate(-226.47 -179.08)"/><path class="cls-2" d="M731.17,195.5c5.1-4.19,11-9.06,10.53-9.88l-10.88,9.86" transform="translate(-226.47 -179.08)"/><path class="cls-2" d="M726.91,199l-.35.32.37-.32" transform="translate(-226.47 -179.08)"/><path class="cls-2" d="M744.4,197.12c3.38-2,7.23-5.43,10.38-8.32l-12.24,8" transform="translate(-226.47 -179.08)"/><path class="cls-2" d="M757.44,186.4c-.8.71-1.7,1.53-2.66,2.4l3.33-2.17,0-.06" transform="translate(-226.47 -179.08)"/><path class="cls-2" d="M754.33,199.4c4.87-3,9.42-6.58,14.22-9.75" transform="translate(-226.47 -179.08)"/><path class="cls-2" d="M749.45,202.07l-.13.08.15-.08" transform="translate(-226.47 -179.08)"/><line class="cls-2" x1="541.93" y1="10.52" x2="527.28" y2="20.16"/><path class="cls-2" d="M647.24,248.55l-.07.09a.86.86,0,0,0-.07.1l-.16.21a12.92,12.92,0,0,1-1,1.17l-1.07,1.15" transform="translate(-226.47 -179.08)"/><path class="cls-2" d="M644.77,251.8c.75-.94,1.48-1.89,2.17-2.85" transform="translate(-226.47 -179.08)"/><path class="cls-2" d="M624.49,273c5.13-5.38,10.81-10.61,15.91-16.17" transform="translate(-226.47 -179.08)"/><path class="cls-2" d="M623.52,274.07l1-1" transform="translate(-226.47 -179.08)"/><line class="cls-2" x1="413.95" y1="76.91" x2="398.02" y2="93.96"/><line class="cls-2" x1="399.29" y1="106.9" x2="415.13" y2="90.35"/><path class="cls-2" d="M641.52,269c-5.54,5.34-11.53,10.3-15.86,16.59" transform="translate(-226.47 -179.08)"/><path class="cls-2" d="M645,265.91l1.3-1.36a8.86,8.86,0,0,0,1.35-2c-.86,1-1.76,2.05-2.69,3" transform="translate(-226.47 -179.08)"/><line class="cls-2" x1="402.76" y1="116.93" x2="417.61" y2="99.13"/><path class="cls-2" d="M626.33,299.08c-.13.29-.26.57-.38.86l.5-.59" transform="translate(-226.47 -179.08)"/><path class="cls-2" d="M643.94,277.82c-5,5.46-11.17,11.22-15.18,17.08" transform="translate(-226.47 -179.08)"/><path class="cls-2" d="M646.94,274.76c.41-.67.78-.69.82-1.47-.29.39-.6.78-.92,1.17" transform="translate(-226.47 -179.08)"/><path class="cls-2" d="M646.89,284.81c-5,5.71-10.5,11.45-14.68,17.44" transform="translate(-226.47 -179.08)"/><line class="cls-2" x1="405.85" y1="123.37" x2="420.44" y2="105.76"/><path class="cls-2" d="M649.57,281.72c.78-.9,1.54-1.81,2.27-2.72l-.32.29-2,2.37" transform="translate(-226.47 -179.08)"/><path class="cls-2" d="M651.84,279a5.21,5.21,0,0,0,1-1.29C652.52,278.15,652.18,278.57,651.84,279Z" transform="translate(-226.47 -179.08)"/><path class="cls-2" d="M636.87,309.89c3.41-2.4,6-6.72,8.85-10,.86-1.26,3.72-5.08,5.56-7.46" transform="translate(-226.47 -179.08)"/><line class="cls-2" x1="424.78" y1="113.34" x2="410.22" y2="130.56"/><line class="cls-2" x1="430.57" y1="121" x2="415.69" y2="137.65"/><path class="cls-2" d="M642.43,317.06c5-3.83,11.42-11.8,14.89-16.68" transform="translate(-226.47 -179.08)"/><path class="cls-2" d="M649.16,323.94c2.3-2.27,6.43-6.62,10.05-10.46L649.12,323.9" transform="translate(-226.47 -179.08)"/><path class="cls-2" d="M664.69,307.72c-1.32,1.36-3.31,3.47-5.48,5.76l5.54-5.71" transform="translate(-226.47 -179.08)"/><line class="cls-2" x1="445.67" y1="134.29" x2="429.06" y2="150.11"/><path class="cls-2" d="M656.29,329.75c3.83-1.87,10.93-10.06,16.13-16.2" transform="translate(-226.47 -179.08)"/><path class="cls-2" d="M675.16,310.48l1.7-1.63c.35-.6.45-1,.67-1.29" transform="translate(-226.47 -179.08)"/><path class="cls-2" d="M677.53,307.56c-.63.69-1.48,1.68-2.47,2.86" transform="translate(-226.47 -179.08)"/><path class="cls-2" d="M677.53,307.56l0,0" transform="translate(-226.47 -179.08)"/><path class="cls-2" d="M677.56,307.53a1.46,1.46,0,0,1,.24-.27Z" transform="translate(-226.47 -179.08)"/><path class="cls-2" d="M678.19,317c-4.43,5.11-11.22,13.3-14.57,17.6" transform="translate(-226.47 -179.08)"/><path class="cls-2" d="M681.23,313.88l1.18-1.4c-.06-.07-.57.42-1.39,1.3" transform="translate(-226.47 -179.08)"/><line class="cls-2" x1="437.29" y1="155.55" x2="452.04" y2="138.03"/><path class="cls-2" d="M671.48,338.63c3.1-2.69,11.63-12.37,15-17.94" transform="translate(-226.47 -179.08)"/><line class="cls-2" x1="458.87" y1="141.15" x2="444.67" y2="159.39"/><path class="cls-2" d="M765.88,203.58c3.71-2.42,7.89-6.9,10.81-10.64" transform="translate(-226.47 -179.08)"/><line class="cls-2" x1="549.94" y1="13.74" x2="537.68" y2="23.74"/><path class="cls-2" d="M779.24,189.8a2,2,0,0,0,.13-.63c-.1.17-.22.34-.34.53" transform="translate(-226.47 -179.08)"/><path class="cls-2" d="M773.91,207.82c3.14-1.92,6.06-5.17,8.78-8.26l-9.6,7.76" transform="translate(-226.47 -179.08)"/><path class="cls-2" d="M784.81,197.17l-2.12,2.39,2.61-2.1" transform="translate(-226.47 -179.08)"/><path class="cls-2" d="M780.84,212.8c4-2.35,8.7-6.68,12-10.33" transform="translate(-226.47 -179.08)"/><line class="cls-2" x1="566.3" y1="23.36" x2="553.76" y2="33.22"/><path class="cls-2" d="M799.24,207.75c-3.24,2.48-6.42,5.12-9.66,7.55l10.29-7" transform="translate(-226.47 -179.08)"/><path class="cls-2" d="M802.93,206.25l.51-.35c.47-.79,1.34-1.57,1.8-2.37-1,.64-2,1.32-3,2" transform="translate(-226.47 -179.08)"/><path class="cls-2" d="M786.1,217.79q1.75-1.2,3.48-2.49L786,217.7" transform="translate(-226.47 -179.08)"/><path class="cls-2" d="M790.94,223.93c4.55-3.46,8.52-7.88,12.94-11.65" transform="translate(-226.47 -179.08)"/><path class="cls-2" d="M787.37,226l-1.29,1.09c.5-.26,1-.54,1.48-.83" transform="translate(-226.47 -179.08)"/><line class="cls-2" x1="577.26" y1="33.05" x2="564.05" y2="44.23"/><path class="cls-2" d="M806.58,210.11c.67-.49,1.35-1,2-1.42-.82-.06-.84.36-1.69.72l-.56.47" transform="translate(-226.47 -179.08)"/><path class="cls-2" d="M795.62,232.47a99.46,99.46,0,0,0,10.06-8.32l-10.32,7.73" transform="translate(-226.47 -179.08)"/><path class="cls-2" d="M792.11,234.31l-1.17.88c.43-.2.85-.42,1.27-.65" transform="translate(-226.47 -179.08)"/><path class="cls-2" d="M810.24,220.11c-1.53,1.3-3,2.67-4.56,4l4.84-3.62" transform="translate(-226.47 -179.08)"/><path class="cls-2" d="M813.08,218.63l.74-.56c.42-.39,1.3-1.16.48-1.22-.53.39-1.06.8-1.59,1.22" transform="translate(-226.47 -179.08)"/><path class="cls-2" d="M680.14,342.05a57,57,0,0,0,7.06-8.5l-7.43,8.38" transform="translate(-226.47 -179.08)"/><path class="cls-2" d="M694.65,323.25c-2.65,3.2-5,6.81-7.45,10.3l8.82-10" transform="translate(-226.47 -179.08)"/><path class="cls-2" d="M698,320l0-.38c-.11.1-.22.2-.32.31" transform="translate(-226.47 -179.08)"/><path class="cls-2" d="M704.56,325.18c-3.29,3-6,7.35-8.92,11.43l10.92-11.2" transform="translate(-226.47 -179.08)"/><path class="cls-2" d="M689,344.56a44.22,44.22,0,0,0,6.68-7.95l-7.54,7.74" transform="translate(-226.47 -179.08)"/><path class="cls-2" d="M696.14,346l15-14.33c-5.87,4.67-12.2,9.24-15.36,14.26" transform="translate(-226.47 -179.08)"/><path class="cls-2" d="M717.09,326l-6,5.75a83.52,83.52,0,0,0,6.64-5.76" transform="translate(-226.47 -179.08)"/><line class="cls-2" x1="502.26" y1="146.09" x2="478.42" y2="168.11"/><path class="cls-2" d="M706.62,347.33c8.29-5.4,16.21-14.78,22.61-22.22" transform="translate(-226.47 -179.08)"/><path class="cls-2" d="M720.35,347.61c4.09-3.51,7.65-8.52,11.08-12.59L719,347.65" transform="translate(-226.47 -179.08)"/><path class="cls-2" d="M744.34,321.89l-4.84,4.92c1.82-1.7,3.64-3.39,5.29-5.06" transform="translate(-226.47 -179.08)"/><path class="cls-2" d="M739.5,326.81c-2.43,2.27-4.86,4.56-6.93,6.89-.37.41-.76.86-1.14,1.32Z" transform="translate(-226.47 -179.08)"/><path class="cls-2" d="M799.23,244a80.23,80.23,0,0,0,7.17-8.56l-7.22,8.3" transform="translate(-226.47 -179.08)"/><path class="cls-2" d="M813.77,226c-2.53,3-4.95,6.27-7.37,9.49l7.69-8.87" transform="translate(-226.47 -179.08)"/><path class="cls-2" d="M816.17,223.83a1.69,1.69,0,0,0,.21-.66l-.36.37" transform="translate(-226.47 -179.08)"/><path class="cls-2" d="M800.3,257.51c5.91-4.64,12.84-13.07,18.26-19.25" transform="translate(-226.47 -179.08)"/><path class="cls-2" d="M796.87,259.8l0,0,0,0" transform="translate(-226.47 -179.08)"/><line class="cls-2" x1="592.02" y1="58.92" x2="573.87" y2="77.22"/><path class="cls-2" d="M821.12,235.4l.73-.78-.74.75" transform="translate(-226.47 -179.08)"/><path class="cls-2" d="M796.37,276.35c8.6-6.07,18.35-17,24.13-26.25" transform="translate(-226.47 -179.08)"/><line class="cls-2" x1="593.86" y1="69.05" x2="570.21" y2="96.44"/><path class="cls-2" d="M823.46,244.77c.1-.19.18-.38.27-.57l-.31.35" transform="translate(-226.47 -179.08)"/><path class="cls-2" d="M760.56,315.39c-9.3,8-19,20.13-26.84,30.92" transform="translate(-226.47 -179.08)"/><line class="cls-2" x1="507.97" y1="167.11" x2="535.4" y2="135.62"/><path class="cls-2" d="M748.39,343c8.49-8.93,16.57-18.25,24.58-27.64l-25,27.76" transform="translate(-226.47 -179.08)"/><path class="cls-2" d="M820.24,262.45c-3,3.21-5.88,6.82-9,9.8-13.46,13.67-25.82,28.49-38.32,43.14L820.18,263" transform="translate(-226.47 -179.08)"/><path class="cls-2" d="M764.76,336.8l12.72-14.72c-5.05,4.82-10.22,9.95-14.09,15.35" transform="translate(-226.47 -179.08)"/><path class="cls-2" d="M817.66,275.62l-40.18,46.46c2.52-2.42,5-4.75,7.29-7a327.88,327.88,0,0,0,29.67-33.57c.75-1.17,1.64-2.43,2.56-3.7" transform="translate(-226.47 -179.08)"/><line class="cls-2" x1="571.89" y1="132.22" x2="565.26" y2="139.21"/><path class="cls-2" d="M790.61,319.35c-1.9,1.52-3.8,3.12-5.55,4.78" transform="translate(-226.47 -179.08)"/><path class="cls-1" d="M555.27,266.56c.49.05,1,.12,1.47.2-22.85,7.38-46.58,12-70.28,15.79a98.67,98.67,0,0,0,13.87-11.68l.8.77c1.78,1.76,4.54-1,2.76-2.73-5.19-5.15-11.05-9.68-16.2-14.87,20.91,7.48,44.55,12.29,66.53,12.83A1.81,1.81,0,0,0,555.27,266.56Z" transform="translate(-226.47 -179.08)"/><path d="M561.22,265.65a2,2,0,0,1,0,3.77c-25.56,8.61-52.32,13.56-78.92,17.7a2.08,2.08,0,0,1-2.11-3.09,1.75,1.75,0,0,1,.64-2.61c5.26-2.77,10.12-6.95,14.55-11.16-2.7-.22-5.4-.54-8.11-.65a1.76,1.76,0,0,1-1.53.8c-28.52-.17-57-.76-85.55-.71-13.41,0-26.83.11-40.24.52-6.73.21-13.52.78-20.25.76-4.34,0-10.51-.79-14.54,1a2,2,0,0,1-2.19-.35,177.08,177.08,0,0,1-13.74,11.28c-4.33,3.36-9.76,6.8-12.78,11.5a2,2,0,0,1-3.29,0c-5-.2-10.22-.31-15.55-.27a1.66,1.66,0,0,1-1.73,0,190.93,190.93,0,0,0-23.65,1.7c-.19.3-.4.59-.6.89a2,2,0,0,1-3.45-.27A100.79,100.79,0,0,0,230.61,301a1.64,1.64,0,0,1-1.5-.12,1.93,1.93,0,0,1-1.7-3.44c11.31-6.73,18.3-20.43,25.52-31.38-7.23-7.16-16.12-12.36-22.73-20.17a1.86,1.86,0,0,1-1.67-2.15c-.88-1.82,2-3.37,3.45-1.66,7.19.09,14.38.31,21.57.58a1.92,1.92,0,0,1,3.49-.39c.1.19.23.35.34.54l11.54.43a20.86,20.86,0,0,1-.76-2.87c-.48-2.44,3.27-3.46,3.74-1a21.42,21.42,0,0,0,1.22,4c2.64.1,5.27.21,7.91.3a2,2,0,0,1,3.58-.43c.12.19.26.34.38.52,4,.12,8.07.23,12.1.28a1.49,1.49,0,0,1,.86,0h.49a1.77,1.77,0,0,1,1.8,1.56c7.64,5.84,14.27,12.82,21.27,19.39a1.65,1.65,0,0,1,.79.73l.55.52a1.92,1.92,0,0,1,3.22,1.33c7.32-1.93,16.69-.67,23.76-.93q22.65-.78,45.33-.84c29.81-.06,59.63.51,89.44.69a1.71,1.71,0,0,1,1.56-.85c3.12.06,6.22.47,9.32.72-5.53-4.91-11.26-9.65-15.79-15.53-1.5-2,1.24-4.72,2.76-2.73.08.11.17.2.25.3a1.75,1.75,0,0,1,1.05.06,218.92,218.92,0,0,0,67,14.32,1.93,1.93,0,0,1,1-.26,27.44,27.44,0,0,1,8.27,1A1.85,1.85,0,0,1,561.22,265.65Zm-4.48,1.11c-.49-.08-1-.15-1.47-.2a1.81,1.81,0,0,1-1,.31c-22-.54-45.62-5.35-66.53-12.83,5.15,5.19,11,9.72,16.2,14.87,1.78,1.76-1,4.49-2.76,2.73l-.8-.77a98.67,98.67,0,0,1-13.87,11.68C510.16,278.75,533.89,274.14,556.74,266.76ZM320.07,269l-.25-.24-11.32-.05a1.68,1.68,0,0,1-.2.29c-8.21,7.89-18.21,13.65-26.61,21.27,4.36,0,8.62.15,12.71.33,3.29-4.13,8-7.3,12.08-10.46C311.1,276.54,315.82,273,320.07,269Zm-11.52-4.17,7.16,0c-6.07-5.87-12-11.91-18.82-16.92-2.92,0-5.85-.12-8.78-.2C294.05,254.25,302.12,258.77,308.55,264.8Zm-5.68,3.85-6.47,0a1.7,1.7,0,0,1-2.51.58l-.88-.6h-.22a163.76,163.76,0,0,1-21.19,21.76c1.51-.05,3-.08,4.51-.1C284.16,282.06,294.23,276.2,302.87,268.65Zm-7.72-3.92,7.53,0C296,259.2,288.35,254.54,283,247.6c-2.62-.08-5.24-.18-7.85-.27,4,6.44,10.82,11.7,17,16A2.06,2.06,0,0,1,295.15,264.73Zm-7.27,3.85-14.78-.08c-5.74,7.87-12.3,15.14-18,23,3.39-.4,6.82-.69,10.24-.9C273.24,283.9,281.23,276.65,287.88,268.58Zm-10.35-3.93,9.9.05c-6.57-4.79-13.22-10.53-16.87-17.55-3.47-.14-7-.25-10.44-.39C265.32,253.2,272.73,257.81,277.53,264.65Zm-5.85-.8c.06-.08.13-.11.19-.18-5.25-6-12.2-10.45-16.69-17.1q-9.87-.37-19.75-.56c6.08,6.3,13.71,10.93,20,17a2,2,0,0,1,2.66,1.5l13.05.07Zm-3.36,4.63-12.07-.06a1.22,1.22,0,0,1-.27,0c-5.78,8.79-11.47,19.06-19.18,26.52a121.24,121.24,0,0,1,13.14-2.72C255.54,283.94,262.29,276.47,268.32,268.48Z" transform="translate(-226.47 -179.08)"/><path d="M465.87,213.5a1.14,1.14,0,0,1,0,2.15c-14.6,4.92-29.88,7.75-45.08,10.12a1.19,1.19,0,0,1-1.2-1.77,1,1,0,0,1,.37-1.49,38.91,38.91,0,0,0,8.31-6.38c-1.55-.12-3.09-.3-4.64-.37a1,1,0,0,1-.87.46c-16.29-.09-32.58-.43-48.87-.41-7.66,0-15.32.07-23,.3-3.84.12-7.72.45-11.57.44-2.47,0-6-.46-8.3.54a1.16,1.16,0,0,1-1.25-.19c-2.46,2.32-5.18,4.37-7.85,6.43-2.47,1.93-5.57,3.89-7.3,6.57a1.13,1.13,0,0,1-1.88,0c-2.85-.11-5.84-.18-8.88-.16a1,1,0,0,1-1,0,109.16,109.16,0,0,0-13.51,1c-.11.18-.23.34-.34.52a1.13,1.13,0,0,1-2-.16,58.33,58.33,0,0,0-10,2.57.94.94,0,0,1-.86-.06,1.1,1.1,0,0,1-1-2c6.46-3.84,10.45-11.67,14.58-17.92-4.13-4.09-9.21-7.06-13-11.52a1.07,1.07,0,0,1-1-1.23c-.5-1,1.16-1.92,2-.95,4.11,0,8.22.18,12.33.33a1.1,1.1,0,0,1,2-.22c.06.11.13.2.19.31l6.59.24a14.46,14.46,0,0,1-.44-1.63c-.27-1.4,1.87-2,2.14-.58a13.11,13.11,0,0,0,.7,2.31l4.52.17a1.15,1.15,0,0,1,2-.25c.07.11.16.2.22.3,2.31.07,4.61.13,6.91.16a.82.82,0,0,1,.49,0h.28a1,1,0,0,1,1,.88c4.35,3.34,8.14,7.33,12.14,11.08a.92.92,0,0,1,.45.42l.32.29a1.1,1.1,0,0,1,1.84.77c4.18-1.11,9.53-.39,13.57-.53q12.93-.45,25.89-.49c17,0,34.06.3,51.09.4a1,1,0,0,1,.89-.49c1.78,0,3.55.27,5.32.42-3.16-2.81-6.43-5.52-9-8.88-.86-1.12.7-2.69,1.57-1.56l.14.18a1,1,0,0,1,.6,0,125.31,125.31,0,0,0,38.24,8.18,1.07,1.07,0,0,1,.55-.15,15.94,15.94,0,0,1,4.72.55A1.06,1.06,0,0,1,465.87,213.5Zm-2.56.64-.84-.12a1,1,0,0,1-.59.18,125.44,125.44,0,0,1-38-7.33c2.95,3,6.29,5.55,9.26,8.49,1,1-.57,2.57-1.58,1.56l-.46-.44a55.81,55.81,0,0,1-7.92,6.67C436.7,221,450.26,218.35,463.31,214.14ZM328.13,215.4l-.15-.14-6.46,0a1.63,1.63,0,0,1-.11.17c-4.69,4.5-10.41,7.79-15.2,12.15,2.49,0,4.92.08,7.25.19,1.89-2.36,4.57-4.17,6.9-6A98.75,98.75,0,0,0,328.13,215.4ZM321.55,213l4.09,0a106.91,106.91,0,0,0-10.75-9.67c-1.67,0-3.34-.07-5-.11C313.26,207,317.88,209.57,321.55,213Zm-3.24,2.19h-3.7a1,1,0,0,1-1.44.33l-.5-.34h-.12a94.79,94.79,0,0,1-12.11,12.43q1.29,0,2.58-.06C307.62,222.88,313.37,219.53,318.31,215.21ZM313.89,213l4.3,0c-3.83-3.18-8.18-5.84-11.23-9.81l-4.48-.15c2.31,3.68,6.18,6.68,9.73,9.15A1.17,1.17,0,0,1,313.89,213Zm-4.14,2.19-8.45,0c-3.28,4.49-7,8.64-10.27,13.16,1.94-.23,3.9-.4,5.86-.51A106.33,106.33,0,0,0,309.75,215.17Zm-5.92-2.24,5.65,0c-3.75-2.74-7.55-6-9.63-10l-6-.23C296.85,206.39,301.09,209,303.83,212.93Zm-3.34-.46a1.09,1.09,0,0,1,.11-.1c-3-3.42-7-6-9.53-9.76q-5.64-.23-11.29-.33c3.48,3.6,7.83,6.25,11.42,9.74a1.16,1.16,0,0,1,1.52.86l7.46,0Zm-1.92,2.65-6.89,0h-.16c-3.3,5-6.55,10.88-10.95,15.15a70.57,70.57,0,0,1,7.5-1.56C291.27,224,295.12,219.68,298.57,215.12Z" transform="translate(-226.47 -179.08)"/><path d="M465.36,317.31a1.14,1.14,0,0,1,0,2.15c-14.6,4.92-29.88,7.75-45.08,10.12a1.19,1.19,0,0,1-1.2-1.77,1,1,0,0,1,.37-1.49,39.19,39.19,0,0,0,8.31-6.37c-1.55-.13-3.09-.31-4.64-.38a1,1,0,0,1-.87.46c-16.29-.09-32.58-.43-48.87-.41-7.66,0-15.32.07-23,.3-3.84.12-7.72.45-11.57.44-2.48,0-6-.45-8.3.54a1.16,1.16,0,0,1-1.25-.19c-2.45,2.32-5.18,4.37-7.85,6.44-2.48,1.92-5.58,3.88-7.3,6.57a1.13,1.13,0,0,1-1.88,0c-2.85-.11-5.84-.18-8.88-.16a1,1,0,0,1-1,0,107.13,107.13,0,0,0-13.51,1c-.11.17-.23.33-.34.51a1.13,1.13,0,0,1-2-.16,58.33,58.33,0,0,0-10,2.57.94.94,0,0,1-.86-.06,1.1,1.1,0,0,1-1-2c6.46-3.84,10.45-11.67,14.58-17.92-4.13-4.09-9.21-7.06-13-11.52a1.07,1.07,0,0,1-1-1.23c-.5-1,1.16-1.93,2-.95q6.17.09,12.33.34a1.09,1.09,0,0,1,2-.23c.06.11.13.2.19.31l6.59.25a15.23,15.23,0,0,1-.44-1.64c-.27-1.4,1.87-2,2.14-.58a13.11,13.11,0,0,0,.7,2.31l4.52.17a1.15,1.15,0,0,1,2-.25c.07.11.16.2.22.3,2.31.07,4.61.13,6.91.16a.82.82,0,0,1,.49,0h.28a1,1,0,0,1,1,.89c4.36,3.33,8.15,7.32,12.15,11.07a1,1,0,0,1,.45.42l.32.29a1.1,1.1,0,0,1,1.84.77c4.18-1.11,9.53-.39,13.57-.53q12.93-.45,25.89-.49c17,0,34.06.3,51.09.4a1,1,0,0,1,.89-.48c1.78,0,3.55.26,5.32.41-3.16-2.81-6.43-5.51-9-8.88-.85-1.11.71-2.69,1.58-1.56l.14.18a1,1,0,0,1,.6,0,124.72,124.72,0,0,0,38.24,8.18,1.07,1.07,0,0,1,.55-.15,15.94,15.94,0,0,1,4.72.55A1.06,1.06,0,0,1,465.36,317.31Zm-2.56.64-.84-.12a.94.94,0,0,1-.59.18,125.5,125.5,0,0,1-38-7.33c2.95,3,6.29,5.56,9.26,8.49,1,1-.57,2.57-1.58,1.56l-.46-.44a55.81,55.81,0,0,1-7.92,6.67C436.19,324.8,449.75,322.16,462.8,318Zm-135.18,1.26-.15-.14L321,319a1,1,0,0,1-.11.17c-4.69,4.5-10.41,7.79-15.2,12.15,2.49,0,4.92.08,7.25.19,1.89-2.36,4.57-4.17,6.91-6C322.5,323.53,325.19,321.51,327.62,319.21ZM321,316.83l4.09,0a106.91,106.91,0,0,0-10.75-9.67c-1.67,0-3.35-.07-5-.11C312.76,310.8,317.37,313.38,321,316.83ZM317.8,319l-3.7,0a1,1,0,0,1-1.44.33l-.5-.34H312a94.17,94.17,0,0,1-12.11,12.43l2.58-.06C307.11,326.69,312.86,323.34,317.8,319Zm-4.42-2.24,4.3,0c-3.83-3.18-8.18-5.84-11.23-9.81l-4.48-.15c2.31,3.68,6.18,6.68,9.73,9.15A1.17,1.17,0,0,1,313.38,316.79ZM309.23,319l-8.44,0c-3.28,4.49-7,8.64-10.27,13.16q2.93-.33,5.86-.51A105.53,105.53,0,0,0,309.23,319Zm-5.91-2.24,5.65,0c-3.75-2.74-7.55-6-9.63-10l-6-.23C296.34,310.2,300.58,312.84,303.32,316.74Zm-3.34-.45a.57.57,0,0,1,.11-.11c-3-3.42-7-6-9.53-9.76-3.77-.15-7.52-.26-11.29-.33,3.48,3.6,7.83,6.25,11.42,9.74a1.16,1.16,0,0,1,1.52.86l7.46,0Zm-1.92,2.64-6.89,0H291c-3.3,5-6.55,10.89-10.95,15.15a66.38,66.38,0,0,1,7.5-1.55C290.76,327.76,294.62,323.49,298.06,318.93Z" transform="translate(-226.47 -179.08)"/><path class="cls-3" d="M328,215.26l.15.14a98.75,98.75,0,0,1-7.77,6.36c-2.33,1.81-5,3.62-6.9,6-2.33-.11-4.76-.17-7.25-.19,4.79-4.36,10.51-7.65,15.2-12.15a1.63,1.63,0,0,0,.11-.17Z" transform="translate(-226.47 -179.08)"/><path class="cls-3" d="M327.47,319.07l.15.14c-2.43,2.3-5.12,4.32-7.76,6.36-2.34,1.81-5,3.62-6.91,6-2.33-.11-4.76-.17-7.25-.19,4.79-4.36,10.51-7.65,15.2-12.15A1,1,0,0,0,321,319Z" transform="translate(-226.47 -179.08)"/><path class="cls-3" d="M319.82,268.73l.25.24c-4.25,4-9,7.57-13.59,11.14-4.09,3.16-8.79,6.33-12.08,10.46-4.09-.18-8.35-.3-12.71-.33,8.4-7.62,18.4-13.38,26.61-21.27a1.68,1.68,0,0,0,.2-.29Z" transform="translate(-226.47 -179.08)"/><path class="cls-3" d="M318.19,213l-4.3,0a1.17,1.17,0,0,0-1.68-.79c-3.55-2.47-7.42-5.47-9.73-9.15l4.48.15C310,207.16,314.36,209.82,318.19,213Z" transform="translate(-226.47 -179.08)"/><path class="cls-3" d="M317.68,316.81l-4.3,0a1.17,1.17,0,0,0-1.68-.79c-3.55-2.47-7.42-5.47-9.73-9.15l4.48.15C309.5,311,313.85,313.63,317.68,316.81Z" transform="translate(-226.47 -179.08)"/><path class="cls-3" d="M301.3,215.13l8.45,0a106.33,106.33,0,0,1-12.86,12.61c-2,.11-3.92.28-5.86.51C294.27,223.77,298,219.62,301.3,215.13Z" transform="translate(-226.47 -179.08)"/><path class="cls-3" d="M300.79,318.94l8.44,0a105.53,105.53,0,0,1-12.85,12.61q-2.94.18-5.86.51C293.76,327.58,297.51,323.43,300.79,318.94Z" transform="translate(-226.47 -179.08)"/><path class="cls-3" d="M302.68,264.77l-7.53,0a2.06,2.06,0,0,0-2.95-1.38c-6.21-4.32-13-9.58-17-16,2.61.09,5.23.19,7.85.27C288.35,254.54,296,259.2,302.68,264.77Z" transform="translate(-226.47 -179.08)"/><path class="cls-3" d="M300.6,212.37a1.09,1.09,0,0,0-.11.1l-.31.44-7.46,0a1.16,1.16,0,0,0-1.52-.86c-3.59-3.49-7.94-6.14-11.42-9.74q5.66.1,11.29.33C293.63,206.4,297.6,209,300.6,212.37Z" transform="translate(-226.47 -179.08)"/><path class="cls-3" d="M300.09,316.18a.57.57,0,0,0-.11.11l-.31.43-7.46,0a1.16,1.16,0,0,0-1.52-.86c-3.59-3.49-7.94-6.14-11.42-9.74,3.77.07,7.52.18,11.29.33C293.12,310.21,297.09,312.76,300.09,316.18Z" transform="translate(-226.47 -179.08)"/><path class="cls-3" d="M273.1,268.5l14.78.08c-6.65,8.07-14.64,15.32-22.51,22.06-3.42.21-6.85.5-10.24.9C260.8,283.64,267.36,276.37,273.1,268.5Z" transform="translate(-226.47 -179.08)"/><path class="cls-3" d="M271.87,263.67c-.06.07-.13.1-.19.18l-.55.77-13.05-.07a2,2,0,0,0-2.66-1.5c-6.28-6.11-13.91-10.74-20-17q9.88.18,19.75.56C259.67,253.22,266.62,257.68,271.87,263.67Z" transform="translate(-226.47 -179.08)"/></svg>