<svg id="Capa_1" data-name="Capa 1" xmlns="http://www.w3.org/2000/svg" viewBox="0 0 152.45 152.45"><defs><style>.cls-1{fill:#333;}.cls-2{fill:#e95950;}.cls-3{fill:#fff;}.cls-4{fill:#fccc63;}</style></defs><title>proyectos</title><path class="cls-1" d="M556.17,334.49a1,1,0,0,1,.88,1.52,48.64,48.64,0,0,1-6.29,10.59,26.31,26.31,0,0,1-4.51,4.52,48.7,48.7,0,0,1-10.6,6.29,1,1,0,0,1-1.52-.89,16.94,16.94,0,0,0-.76-3.64c-2.06-4.48-5.15-7.94-8.46-11.93-4.08-4.91-8-9.91-12.2-14.75-5.59-6.48-11.63-13.7-18.79-18.86a27.26,27.26,0,0,0-8.24-3,1,1,0,0,1-.59-1.39,49.3,49.3,0,0,1,6.3-8.89,26,26,0,0,1-1.91-1.81,1.37,1.37,0,0,1-.28-1.58s0,0,0-.05a.83.83,0,0,1,0-.15c3.83-9.72,7.79-19.38,11.72-29.05,3.13-7.73,5.9-15.94,9.46-23.55.2-.57.41-1.13.6-1.69a20.51,20.51,0,0,1,1-3,1.52,1.52,0,0,0-.06-.2c-3.39-3.34-6.84-6.61-10.2-10-2.82-2.83-6.39-8-10.59-7.45,2.11,2.1,4.23,4.18,6.26,6.32a7,7,0,0,1,2.07,3.19,3.84,3.84,0,0,1-1.58,4.2c-.71.8-1.55,1.51-2.16,2.08s-1.5,1.45-2.26,2.16c-5.52,6.24-11.95,11.94-17.73,17.65-4.19,4.13-8.36,8.28-12.57,12.38s-8.26,8.38-12.39,12.57c-5.71,5.79-11.41,12.21-17.64,17.73-.72.77-1.46,1.51-2.16,2.26a27.4,27.4,0,0,1-2.09,2.16,3.83,3.83,0,0,1-4.19,1.59,7.2,7.2,0,0,1-3.2-2.07c-2.61-2.48-5.13-5.1-7.71-7.67q-3.24-3.23-6.47-6.51c-1-1-2.77-2.75-2.62-4.35a8.33,8.33,0,0,1,.28-1.52,4.92,4.92,0,0,1,.21-1c.54-1.64,2.32-2.87,3.55-4A22.38,22.38,0,0,1,411,270.6c5.53-6.45,12.05-12.38,17.89-18.3l1.43-1.45a69.75,69.75,0,0,0,5.14-5.18c2.48-2.52,5-5,7.49-7.5,1.68-1.66,3.26-3.39,4.83-5.15a26.33,26.33,0,0,1,2.17-1.81l2-1.94c5.92-5.84,11.85-12.37,18.3-17.9a23.5,23.5,0,0,1,2.1-2.25c1.13-1.23,2.36-3,4-3.55a4.87,4.87,0,0,1,1-.22,8.28,8.28,0,0,1,1.53-.27c1.59-.15,3.31,1.6,4.34,2.62q2.86,2.81,5.68,5.64c2.18-2.24,5.78-1.16,8.28,1.25,5.94,5.7,11.5,11.79,17.24,17.69a1.12,1.12,0,0,1,.17,1.49c-2.81,9.95-7.55,19.49-11.42,29-3.63,8.9-7.23,17.82-10.92,26.69-.13.55-.28,1.08-.43,1.62a15.32,15.32,0,0,1,1.25,1.29,47.76,47.76,0,0,1,9.51-6.9A1,1,0,0,1,504,286a27.09,27.09,0,0,0,3,8.24c5.15,7.17,12.37,13.21,18.85,18.79,4.84,4.18,9.84,8.13,14.76,12.2,4,3.31,7.44,6.4,11.92,8.47A17.66,17.66,0,0,0,556.17,334.49Zm-1.59,1.8a13.13,13.13,0,0,1-2.05-.57c-3.72-.94-7.29-4.57-10.11-6.56-5.8-4.1-11.48-8.47-16.91-13.07-8.48-7.18-21.16-16.49-23.27-28.19a54.32,54.32,0,0,0-8.13,6.57,55,55,0,0,0-6.57,8.13c11.7,2.11,21,14.79,28.2,23.27,4.59,5.42,9,11.1,13.07,16.91,2,2.81,5.61,6.39,6.56,10.1a13.12,13.12,0,0,1,.56,2.05,51.76,51.76,0,0,0,7.63-5c1.11-.89,2.14-1.88,3.16-2.87a41,41,0,0,0,2.87-3.17A52.55,52.55,0,0,0,554.58,336.29Zm-58.28-110a3.7,3.7,0,0,0-.31-1.57,39.1,39.1,0,0,0-3-3.9l-.54-.5c-2-.42-4-.84-5.84-1.19-5.62-1.07-11.44-2-17.14-3.29-4.81,5.11-10.1,9.9-15,14.69,5.17,1,10.31,2.2,15.41,3.13,5.35,1,11.24,1.59,16.92,2.68,1.48-1.41,3-2.8,4.5-4.13l1.09-1.2C493.29,230.06,495.84,228.07,496.3,226.32Zm-8.9-10.13.78.13c-2.25-2.58-6-7.32-9.25-8.33a4,4,0,0,0-3.8,1.44l-.33.35c-.89,1.12-1.82,2.2-2.77,3.28C477.18,214.07,482.31,215.26,487.4,216.19ZM473.94,249.3c3.19-3.14,6.38-6.48,9.65-9.76-5-.84-9.95-2-14.47-2.88-5.71-1.08-11.63-2-17.42-3.35q-4.71,4.65-9.44,9.3-2.67,2.73-5.34,5.43c5.18,1,10.35,2.21,15.48,3.15,5.33,1,11.21,1.59,16.88,2.68l.17-.14Zm-10.4,10.34,2.56-2.59c-5-.85-10-2-14.48-2.89-5.72-1.08-11.64-2-17.43-3.36l-3.35,3.39c-3.63,3.68-7.26,7.62-11,11.43,5.06,1,10.09,2.16,15.09,3.07,5.35,1,11.24,1.6,16.92,2.69l1.55-1.57s0,0,0,0c1.12-1,2.16-2.21,3.21-3.17C459,264.41,461.24,262,463.54,259.64Zm-29.13,29.25c4.6-4.95,9.64-9.65,14.27-14.33-5-.85-10-2-14.56-2.9-5.61-1.06-11.41-2-17.09-3.28-2.46,2.38-5,4.68-7.6,6.77-.12.11-.25.22-.35.33a4.08,4.08,0,0,0-1.45,3.81c.6,1.92,2.49,4,4.47,5.85,1.77.37,3.54.73,5.3,1.05C422.77,287.17,428.7,287.79,434.41,288.89Zm-3.73,3.87.74-.66c-5.07-.84-10.13-2.05-14.74-2.93.12.11.24.22.33.32.86.85,2.09,2.41,3.49,3.86a36.59,36.59,0,0,0,3.89,3,3.87,3.87,0,0,0,1.57.3C427.71,296.2,429.7,293.64,430.68,292.76Z" transform="translate(-404.71 -205.07)"/><path class="cls-2" d="M552.53,335.72a13.13,13.13,0,0,0,2.05.57,52.55,52.55,0,0,1-5,7.62,41,41,0,0,1-2.87,3.17c-1,1-2.05,2-3.16,2.87a51.76,51.76,0,0,1-7.63,5,13.12,13.12,0,0,0-.56-2.05c-1-3.71-4.58-7.29-6.56-10.1-4.1-5.81-8.48-11.49-13.07-16.91-7.19-8.48-16.5-21.16-28.2-23.27a55,55,0,0,1,6.57-8.13,54.32,54.32,0,0,1,8.13-6.57c2.11,11.7,14.79,21,23.27,28.19,5.43,4.6,11.11,9,16.91,13.07C545.24,331.15,548.81,334.78,552.53,335.72Zm-5.39,4.63c.64-3.09-1.73-5.14-4.13-6.49-2.22-1.24-6.24-3.81-8.94-3a4.91,4.91,0,0,0-2.21,1.26l-.06.06-.07.07a5,5,0,0,0-1.26,2.2c-.77,2.71,1.8,6.73,3,8.94,1.34,2.4,3.4,4.77,6.48,4.14a9.39,9.39,0,0,0,4.64-2.51A9.28,9.28,0,0,0,547.14,340.35Z" transform="translate(-404.71 -205.07)"/><path class="cls-1" d="M543,333.86c2.4,1.35,4.77,3.4,4.13,6.49a9.28,9.28,0,0,1-2.51,4.64A9.39,9.39,0,0,1,540,347.5c-3.08.63-5.14-1.74-6.48-4.14-1.24-2.21-3.81-6.23-3-8.94a5,5,0,0,1,1.26-2.2l.07-.07.06-.06a4.91,4.91,0,0,1,2.21-1.26C536.77,330.05,540.79,332.62,543,333.86Zm-.1,9.22c2.18-2.65,2.13-5.13-1.22-6.9-2.39-1.27-5.56-3.6-8.13-2.26-1.33,2.57,1,5.73,2.26,8.13,1.77,3.34,4.26,3.4,6.91,1.21l.09-.08Z" transform="translate(-404.71 -205.07)"/><path class="cls-3" d="M496,224.75a3.7,3.7,0,0,1,.31,1.57c-.46,1.75-3,3.74-3.89,4.72l-1.09,1.2c-1.52,1.33-3,2.72-4.5,4.13-5.68-1.09-11.57-1.71-16.92-2.68-5.1-.93-10.24-2.12-15.41-3.13,4.89-4.79,10.18-9.58,15-14.69,5.7,1.29,11.52,2.22,17.14,3.29,1.88.35,3.84.77,5.84,1.19l.54.5A39.1,39.1,0,0,1,496,224.75Z" transform="translate(-404.71 -205.07)"/><path class="cls-4" d="M488.18,216.32l-.78-.13c-5.09-.93-10.22-2.12-15.37-3.13,1-1.08,1.88-2.16,2.77-3.28l.33-.35a4,4,0,0,1,3.8-1.44C482.2,209,485.93,213.74,488.18,216.32Z" transform="translate(-404.71 -205.07)"/><path class="cls-4" d="M483.59,239.54c-3.27,3.28-6.46,6.62-9.65,9.76l-4.49,4.43-.17.14c-5.67-1.09-11.55-1.71-16.88-2.68-5.13-.94-10.3-2.13-15.48-3.15q2.67-2.7,5.34-5.43,4.74-4.63,9.44-9.3c5.79,1.32,11.71,2.27,17.42,3.35C473.64,237.52,478.61,238.7,483.59,239.54Z" transform="translate(-404.71 -205.07)"/><path class="cls-3" d="M466.1,257.05l-2.56,2.59c-2.3,2.32-4.52,4.77-6.94,7-1.05,1-2.09,2.14-3.21,3.17,0,0,0,0,0,0l-1.55,1.57c-5.68-1.09-11.57-1.72-16.92-2.69-5-.91-10-2.07-15.09-3.07,3.77-3.81,7.4-7.75,11-11.43l3.35-3.39c5.79,1.33,11.71,2.28,17.43,3.36C456.15,255,461.12,256.2,466.1,257.05Z" transform="translate(-404.71 -205.07)"/><path class="cls-4" d="M448.68,274.56c-4.63,4.68-9.67,9.38-14.27,14.33-5.71-1.1-11.64-1.72-17-2.7-1.76-.32-3.53-.68-5.3-1.05-2-1.85-3.87-3.93-4.47-5.85a4.08,4.08,0,0,1,1.45-3.81c.1-.11.23-.22.35-.33,2.63-2.09,5.14-4.39,7.6-6.77,5.68,1.29,11.48,2.22,17.09,3.28C438.67,272.52,443.67,273.71,448.68,274.56Z" transform="translate(-404.71 -205.07)"/><path class="cls-3" d="M431.42,292.1l-.74.66c-1,.88-3,3.44-4.72,3.89a3.87,3.87,0,0,1-1.57-.3,36.59,36.59,0,0,1-3.89-3c-1.4-1.45-2.63-3-3.49-3.86-.09-.1-.21-.21-.33-.32C421.29,290.05,426.35,291.26,431.42,292.1Z" transform="translate(-404.71 -205.07)"/></svg>